<?xml version="1.0" encoding="UTF-8"?>
<svg width="15px" height="13px" viewBox="0 0 15 13" version="1.1" xmlns="http://www.w3.org/2000/svg"
  xmlns:xlink="http://www.w3.org/1999/xlink">
  <title>Group 6</title>
  <g id="Symbols" stroke="none" stroke-width="1" fill="none" fill-rule="evenodd">
    <g id="footer" transform="translate(-954.000000, -38.000000)" fill="#FFFFFF" fill-rule="nonzero">
      <g id="twittericon" transform="translate(954.000000, 38.000000)">
        <path
          d="M0,11.0358612 C1.69307363,11.0806769 3.11997129,10.7731915 4.45328197,9.75114504 C3.11632505,9.52084224 2.17437812,8.8946676 1.65782658,7.562646 L2.67391385,7.562646 C1.45849846,6.86924784 0.638093077,5.95924056 0.582183969,4.44173184 L1.89361717,4.80150216 C0.589476462,3.51803088 0.243083077,2.19845808 0.997856031,0.58633848 C2.69943757,2.55698352 4.76564372,3.65496768 7.33381643,3.84916896 C7.33381643,3.454542 7.29249231,3.10224096 7.33381643,2.76612336 C7.66927108,0.4170348 10.2495979,-0.7967232 12.1432151,0.5788692 C12.7229682,0.99963864 13.1556561,0.90751752 13.6855772,0.71207136 C13.9639074,0.60874632 14.2325142,0.4792788 14.5059826,0.3610152 L14.6275242,0.47180952 L13.6333144,1.89968688 L14.8596685,1.618344 L14.9471784,1.70922024 C14.61537,2.0665008 14.2604687,2.4026184 13.9614765,2.78728632 C13.7803796,3.02132376 13.5846978,3.3238296 13.5713282,3.6039276 C13.3561997,7.99959888 10.5838372,11.421774 6.50368772,12.240905 C4.25395385,12.697776 2.14034649,12.3081286 0,11.0358612 Z"
          id="Path"></path>
      </g>
    </g>
  </g>
</svg>
