<?xml version="1.0" encoding="UTF-8"?>
<svg width="185px" height="113px" viewBox="0 0 185 113" version="1.1" xmlns="http://www.w3.org/2000/svg"
  xmlns:xlink="http://www.w3.org/1999/xlink">
  <title>Reproducible Analyses</title>
  <g id="Landing-Page" stroke="none" stroke-width="1" fill="none" fill-rule="evenodd">
    <g id="Home" transform="translate(-494.000000, -496.000000)">
      <g id="Group-11" transform="translate(494.000000, 496.000000)">
        <rect id="Rectangle" stroke="#0F91F2" stroke-width="4.3" x="2.15" y="28.15" width="146.7" height="82.7" rx="3">
        </rect>
        <g id="Group-13" transform="translate(13.000000, 14.000000)">
          <rect id="Rectangle-Copy" stroke="#0F91F2" stroke-width="4.3" fill="#FFFFFF" x="2.15" y="2.15" width="146.7"
            height="82.7" rx="3"></rect>
          <line x1="19" y1="16.5" x2="47" y2="16.5" id="Line-2" stroke="#0F91F2" stroke-width="4"
            stroke-linecap="round"></line>
          <line x1="110" y1="41.5" x2="133" y2="41.5" id="Line-2-Copy-3" stroke="#0F91F2" stroke-width="4"
            stroke-linecap="round"></line>
          <line x1="19.491453" y1="25.5" x2="134" y2="26" id="Line-2-Copy-2" stroke="#0F91F2" stroke-width="4"
            stroke-linecap="round"></line>
          <line x1="110" y1="49.5" x2="133" y2="49.5" id="Line-2-Copy-4" stroke="#0F91F2" stroke-width="4"
            stroke-linecap="round"></line>
          <line x1="110" y1="66.5" x2="133" y2="66.5" id="Line-2-Copy-5" stroke="#0F91F2" stroke-width="4"
            stroke-linecap="round"></line>
          <rect id="Rectangle-Copy-3" stroke="#0F91F2" stroke-width="4" x="19" y="39" width="78" height="31" rx="3">
          </rect>
          <line x1="22.189747" y1="67" x2="94.161578" y2="42" id="Path-10" stroke="#0F91F2" stroke-width="4"
            stroke-linecap="round"></line>
          <path
            d="M43,54.5014153 C43,56.4346947 41.4318641,58 39.4985847,58 C37.5681359,58 36,56.4346947 36,54.5014153 C36,52.5681359 37.5681359,51 39.4985847,51 C41.4318641,51 43,52.5681359 43,54.5014153"
            id="Fill-1" fill="#FF5B00"></path>
          <path
            d="M34,61.5014153 C34,63.4346947 32.4318641,65 30.4985847,65 C28.5681359,65 27,63.4346947 27,61.5014153 C27,59.5681359 28.5681359,58 30.4985847,58 C32.4318641,58 34,59.5681359 34,61.5014153"
            id="Fill-1-Copy-5" fill="#FF5B00"></path>
          <path
            d="M75,58.5014153 C75,60.4346947 73.4318641,62 71.4985847,62 C69.5681359,62 68,60.4346947 68,58.5014153 C68,56.5681359 69.5681359,55 71.4985847,55 C73.4318641,55 75,56.5681359 75,58.5014153"
            id="Fill-1-Copy-3" fill="#FF5B00"></path>
          <path
            d="M82,46.5014153 C82,48.4346947 80.4318641,50 78.4985847,50 C76.5681359,50 75,48.4346947 75,46.5014153 C75,44.5681359 76.5681359,43 78.4985847,43 C80.4318641,43 82,44.5681359 82,46.5014153"
            id="Fill-1-Copy-4" fill="#FF5B00"></path>
          <path
            d="M61,52.5014153 C61,54.4346947 59.4318641,56 57.4985847,56 C55.5681359,56 54,54.4346947 54,52.5014153 C54,50.5681359 55.5681359,49 57.4985847,49 C59.4318641,49 61,50.5681359 61,52.5014153"
            id="Fill-1-Copy-2" fill="#FF5B00"></path>
          <path
            d="M70,51.5014153 C70,53.4346947 68.4318641,55 66.4985847,55 C64.5681359,55 63,53.4346947 63,51.5014153 C63,49.5681359 64.5681359,48 66.4985847,48 C68.4318641,48 70,49.5681359 70,51.5014153"
            id="Fill-1-Copy-6" fill="#FF5B00"></path>
          <path
            d="M53,61.5014153 C53,63.4346947 51.4318641,65 49.4985847,65 C47.5681359,65 46,63.4346947 46,61.5014153 C46,59.5681359 47.5681359,58 49.4985847,58 C51.4318641,58 53,59.5681359 53,61.5014153"
            id="Fill-1-Copy" fill="#FF5B00"></path>
        </g>
        <rect id="Rectangle" stroke="#0F91F2" stroke-width="4.3" x="2.15" y="28.15" width="146.7" height="82.7" rx="3">
        </rect>
        <g id="Group-13" transform="translate(13.000000, 14.000000)">
          <rect id="Rectangle-Copy" stroke="#0F91F2" stroke-width="4.3" fill="#FFFFFF" x="2.15" y="2.15" width="146.7"
            height="82.7" rx="3"></rect>
          <line x1="19" y1="16.5" x2="47" y2="16.5" id="Line-2" stroke="#0F91F2" stroke-width="4"
            stroke-linecap="round"></line>
          <line x1="110" y1="41.5" x2="133" y2="41.5" id="Line-2-Copy-3" stroke="#0F91F2" stroke-width="4"
            stroke-linecap="round"></line>
          <line x1="19.491453" y1="25.5" x2="134" y2="26" id="Line-2-Copy-2" stroke="#0F91F2" stroke-width="4"
            stroke-linecap="round"></line>
          <line x1="110" y1="49.5" x2="133" y2="49.5" id="Line-2-Copy-4" stroke="#0F91F2" stroke-width="4"
            stroke-linecap="round"></line>
          <line x1="110" y1="66.5" x2="133" y2="66.5" id="Line-2-Copy-5" stroke="#0F91F2" stroke-width="4"
            stroke-linecap="round"></line>
          <rect id="Rectangle-Copy-3" stroke="#0F91F2" stroke-width="4" x="19" y="39" width="78" height="31" rx="3">
          </rect>
          <line x1="22.189747" y1="67" x2="94.161578" y2="42" id="Path-10" stroke="#0F91F2" stroke-width="4"
            stroke-linecap="round"></line>
          <path
            d="M43,54.5014153 C43,56.4346947 41.4318641,58 39.4985847,58 C37.5681359,58 36,56.4346947 36,54.5014153 C36,52.5681359 37.5681359,51 39.4985847,51 C41.4318641,51 43,52.5681359 43,54.5014153"
            id="Fill-1" fill="#FF5B00"></path>
          <path
            d="M34,61.5014153 C34,63.4346947 32.4318641,65 30.4985847,65 C28.5681359,65 27,63.4346947 27,61.5014153 C27,59.5681359 28.5681359,58 30.4985847,58 C32.4318641,58 34,59.5681359 34,61.5014153"
            id="Fill-1-Copy-5" fill="#FF5B00"></path>
          <path
            d="M75,58.5014153 C75,60.4346947 73.4318641,62 71.4985847,62 C69.5681359,62 68,60.4346947 68,58.5014153 C68,56.5681359 69.5681359,55 71.4985847,55 C73.4318641,55 75,56.5681359 75,58.5014153"
            id="Fill-1-Copy-3" fill="#FF5B00"></path>
          <path
            d="M82,46.5014153 C82,48.4346947 80.4318641,50 78.4985847,50 C76.5681359,50 75,48.4346947 75,46.5014153 C75,44.5681359 76.5681359,43 78.4985847,43 C80.4318641,43 82,44.5681359 82,46.5014153"
            id="Fill-1-Copy-4" fill="#FF5B00"></path>
          <path
            d="M61,52.5014153 C61,54.4346947 59.4318641,56 57.4985847,56 C55.5681359,56 54,54.4346947 54,52.5014153 C54,50.5681359 55.5681359,49 57.4985847,49 C59.4318641,49 61,50.5681359 61,52.5014153"
            id="Fill-1-Copy-2" fill="#FF5B00"></path>
          <path
            d="M70,51.5014153 C70,53.4346947 68.4318641,55 66.4985847,55 C64.5681359,55 63,53.4346947 63,51.5014153 C63,49.5681359 64.5681359,48 66.4985847,48 C68.4318641,48 70,49.5681359 70,51.5014153"
            id="Fill-1-Copy-6" fill="#FF5B00"></path>
          <path
            d="M53,61.5014153 C53,63.4346947 51.4318641,65 49.4985847,65 C47.5681359,65 46,63.4346947 46,61.5014153 C46,59.5681359 47.5681359,58 49.4985847,58 C51.4318641,58 53,59.5681359 53,61.5014153"
            id="Fill-1-Copy" fill="#FF5B00"></path>
        </g>
        <g id="Group-12-Copy" transform="translate(137.000000, 0.000000)">
          <circle id="Oval" fill="#1A1A1A" cx="23.9555556" cy="23.9555556" r="23.9555556"></circle>
          <g id="Group-3" transform="translate(13.688889, 6.844444)">
            <rect id="Rectangle" stroke="#FFFFFF" stroke-width="2.93333333" stroke-linejoin="round" x="0" y="11.7333333"
              width="21.5111111" height="17.6" rx="2.93333333"></rect>
            <path
              d="M10.7555556,1.46666667 C12.1055849,1.46666667 13.3278072,2.01387419 14.212522,2.89858907 C15.0972369,3.78330394 15.6444444,5.00552617 15.6444444,6.35555556 L15.6444444,6.35555556 L15.6444444,10.7555556 L6.35555556,11.2444444 L5.86666667,6.35555556 C5.86666667,5.00552617 6.41387419,3.78330394 7.29858907,2.89858907 C8.18330394,2.01387419 9.40552617,1.46666667 10.7555556,1.46666667 Z"
              id="Rectangle" stroke="#FFFFFF" stroke-width="2.93333333"></path>
            <g id="Group-2" transform="translate(8.311111, 16.622222)">
              <circle id="Oval" fill="#FFFFFF" cx="2.44444444" cy="2.44444444" r="2.44444444"></circle>
              <line x1="2.44444444" y1="3.42222222" x2="2.44444444" y2="7.33333333" id="Line" stroke="#FFFFFF"
                stroke-width="2.93333333" stroke-linecap="round"></line>
            </g>
          </g>
        </g>
      </g>
    </g>
  </g>
</svg>
