<svg xmlns="http://www.w3.org/2000/svg" viewBox="0 0 16 16"><title>web hyperlink</title><g fill="#212121" class="nc-icon-wrapper"><path data-color="color-2" d="M13,5.142v2.136C13.595,7.625,14,8.263,14,9v2c0,1.103-0.897,2-2,2H8c-1.103,0-2-0.897-2-2V9 c0-1.103,0.897-2,2-2h1V5H8C5.794,5,4,6.794,4,9v2c0,2.206,1.794,4,4,4h4c2.206,0,4-1.794,4-4V9C16,7.141,14.721,5.589,13,5.142z"></path> <path fill="#212121" d="M8,1H4C1.794,1,0,2.794,0,5v2c0,1.859,1.279,3.411,3,3.858V8.722C2.405,8.375,2,7.737,2,7V5 c0-1.103,0.897-2,2-2h4c1.103,0,2,0.897,2,2v2c0,1.103-0.897,2-2,2H7v2h1c2.206,0,4-1.794,4-4V5C12,2.794,10.206,1,8,1z"></path></g></svg>