<svg id="Layer_1" data-name="Layer 1" xmlns="http://www.w3.org/2000/svg" xmlns:xlink="http://www.w3.org/1999/xlink" viewBox="0 0 474.29 474.29"><defs><style>.cls-1{fill:none;}.cls-2{opacity:0.4;}.cls-3{clip-path:url(#clip-path);}.cls-4{fill:#fff;}.cls-5{fill:#1a1a1a;}.cls-6{fill:#00b1ef;}.cls-7{clip-path:url(#clip-path-2);}.cls-8{fill:#0f91f2;}</style><clipPath id="clip-path"><path class="cls-1" d="M-97.07,337.52V139.67a17.26,17.26,0,0,0-8.63-14.95L-277,25.79a17.28,17.28,0,0,0-17.26,0l-171.34,98.93a17.26,17.26,0,0,0-8.63,14.95V337.52a17.26,17.26,0,0,0,8.63,15l171.34,98.93a17.28,17.28,0,0,0,17.26,0l171.35-98.93A17.26,17.26,0,0,0-97.07,337.52Z"/></clipPath><clipPath id="clip-path-2"><path class="cls-1" d="M428.94,339.68v-201a18.48,18.48,0,0,0-9.23-16L245.61,22.14a18.47,18.47,0,0,0-18.47,0L53.05,122.65a18.47,18.47,0,0,0-9.24,16v201a18.44,18.44,0,0,0,9.24,16L227.14,456.19a18.47,18.47,0,0,0,18.47,0l174.1-100.52A18.45,18.45,0,0,0,428.94,339.68Z"/></clipPath></defs><g class="cls-2"><g class="cls-3"><path class="cls-4" d="M13.58,74.34a31.74,31.74,0,1,1-31.74,31.74A31.77,31.77,0,0,1,13.58,74.34m0-6.68A38.43,38.43,0,1,0,52,106.08,38.42,38.42,0,0,0,13.58,67.66Z"/><circle class="cls-4" cx="13.58" cy="106.08" r="21.44"/><path class="cls-4" d="M191.19,257.17a31.74,31.74,0,1,1-31.73,31.74,31.77,31.77,0,0,1,31.73-31.74m0-6.69a38.43,38.43,0,1,0,38.43,38.43,38.43,38.43,0,0,0-38.43-38.43Z"/><path class="cls-4" d="M53.76,256.86A32.05,32.05,0,1,1,33.2,313.49l-3.93-3.28-1.14-1c-6-5.37-13.39-12.06-22.45-12.06s-16.49,6.69-22.46,12.06q-.46.44-.93.84l-4.14,3.46A32,32,0,0,1-42.4,321a32.09,32.09,0,0,1-32.05-32A32.09,32.09,0,0,1-42.4,256.86a32.1,32.1,0,0,1,20.55,7.47L-18.6,267c.69.62,1.4,1.29,2.13,2,5.87,5.51,13.17,12.36,22.15,12.36S22,274.52,27.83,269l1.91-1.78,3.46-2.9a32.1,32.1,0,0,1,20.56-7.47m0-6.68a38.57,38.57,0,0,0-24.85,9v-.05C22.44,264,14.4,274.68,5.68,274.68s-16.77-10.63-23.23-15.53v.05a38.59,38.59,0,0,0-24.85-9,38.73,38.73,0,0,0-38.74,38.73A38.73,38.73,0,0,0-42.4,327.65a38.6,38.6,0,0,0,24.85-9v0c6.46-4.89,14.51-14.83,23.23-14.83s16.76,9.94,23.23,14.83v0a38.73,38.73,0,1,0,24.85-68.44Z"/><circle class="cls-4" cx="54.34" cy="288.91" r="21.44"/><path class="cls-4" d="M122.67,208.78a32,32,0,0,1,24.58,52.61l-2.71,3.25c-.62.68-1.29,1.4-2,2.12-5.51,5.87-12.36,13.18-12.36,22.15s6.85,16.28,12.36,22.15l1.79,1.92,2.89,3.45a32.05,32.05,0,1,1-49.16,0l3.28-3.92,1-1.14c5.37-6,12.06-13.4,12.06-22.46s-6.69-16.49-12.06-22.46l-.84-.93-3.46-4.13a32,32,0,0,1,24.58-52.61m0-6.68A38.72,38.72,0,0,0,93,265.68h0c4.9,6.47,14.83,14.51,14.83,23.23s-9.93,16.77-14.83,23.23h0a38.74,38.74,0,1,0,59.42,0h.05c-4.89-6.46-15.53-14.51-15.53-23.23s10.64-16.76,15.53-23.23h-.05a38.72,38.72,0,0,0-29.71-63.58Z"/><circle class="cls-4" cx="122.67" cy="241.07" r="21.44"/><circle class="cls-4" cx="122.67" cy="337.07" r="21.44"/><circle class="cls-4" cx="191.19" cy="288.91" r="21.44"/><path class="cls-4" d="M6,188.27a31.74,31.74,0,0,1,0,63.47,31.74,31.74,0,1,1,0-63.47m0-6.69A38.43,38.43,0,1,0,44.46,220,38.42,38.42,0,0,0,6,181.58Z"/><circle class="cls-4" cx="6.04" cy="220.01" r="21.44"/><path class="cls-4" d="M72,381.86a31.74,31.74,0,1,1-31.74,31.73A31.77,31.77,0,0,1,72,381.86m0-6.69a38.43,38.43,0,1,0,38.43,38.42A38.43,38.43,0,0,0,72,375.17Z"/><path class="cls-4" d="M3.47,333.47a32.08,32.08,0,0,1,32.05,32,32,32,0,0,1-7.47,20.55l-2.7,3.25c-.63.69-1.3,1.4-2,2.13C17.87,397.32,11,404.62,11,413.59s6.85,16.29,12.35,22.16c.62.65,1.22,1.29,1.79,1.91l2.89,3.46a32,32,0,0,1,7.47,20.55A32.08,32.08,0,0,1,3.47,493.72a32,32,0,0,1-24.58-52.6l3.28-3.93,1-1.14c5.38-6,12.06-13.39,12.06-22.45s-6.68-16.49-12.06-22.46l-.83-.93-3.47-4.14a32,32,0,0,1,24.58-52.6m0-6.69a38.73,38.73,0,0,0-38.73,38.74,38.54,38.54,0,0,0,9,24.85h0c4.9,6.46,14.83,14.5,14.83,23.23s-9.93,16.76-14.82,23.22h0a38.59,38.59,0,0,0-9,24.85,38.74,38.74,0,1,0,77.47,0,38.54,38.54,0,0,0-9-24.85h.06c-4.9-6.46-15.53-14.51-15.53-23.23s10.63-16.76,15.52-23.22h0a38.6,38.6,0,0,0,9-24.85A38.73,38.73,0,0,0,3.47,326.78Z"/><circle class="cls-4" cx="3.47" cy="365.76" r="21.44"/><circle class="cls-4" cx="3.47" cy="461.75" r="21.44"/><circle class="cls-4" cx="72" cy="413.59" r="21.44"/></g></g><path class="cls-5" d="M236.38,456.66a16.53,16.53,0,0,1-8.24-2.2L54.05,353.94a16.52,16.52,0,0,1-8.24-14.26v-201a16.52,16.52,0,0,1,8.24-14.26L228.14,23.87a16.51,16.51,0,0,1,16.47,0l174.1,100.52a16.51,16.51,0,0,1,8.23,14.26v201a16.51,16.51,0,0,1-8.23,14.26L244.61,454.46A16.52,16.52,0,0,1,236.38,456.66Z"/><path class="cls-6" d="M236.38,23.67a14.45,14.45,0,0,1,7.23,1.94l174.1,100.51a14.52,14.52,0,0,1,7.23,12.53v201a14.52,14.52,0,0,1-7.23,12.53L243.61,452.72a14.46,14.46,0,0,1-14.47,0L55.05,352.21a14.51,14.51,0,0,1-7.24-12.53v-201a14.51,14.51,0,0,1,7.24-12.53L229.14,25.61a14.49,14.49,0,0,1,7.24-1.94m0-4a18.47,18.47,0,0,0-9.24,2.47L53.05,122.65a18.47,18.47,0,0,0-9.24,16v201a18.44,18.44,0,0,0,9.24,16L227.14,456.19a18.5,18.5,0,0,0,18.47,0l174.1-100.52a18.45,18.45,0,0,0,9.23-16v-201a18.48,18.48,0,0,0-9.23-16L245.61,22.14a18.41,18.41,0,0,0-9.23-2.47Z"/><g class="cls-7"><path class="cls-8" d="M236.09,92.41A18.79,18.79,0,1,1,217.3,111.2a18.81,18.81,0,0,1,18.79-18.79m0-4a22.75,22.75,0,1,0,22.75,22.75,22.75,22.75,0,0,0-22.75-22.75Z"/><path class="cls-8" d="M154.72,92.23a19,19,0,1,1-12.17,33.53l-2.33-2-.67-.6c-3.53-3.18-7.93-7.14-13.29-7.14s-9.77,4-13.3,7.14l-.55.5L110,125.76a19,19,0,1,1,0-29.11l1.92,1.6c.41.37.83.77,1.26,1.17,3.48,3.26,7.8,7.32,13.11,7.32s9.64-4.06,13.12-7.32c.38-.36.76-.72,1.13-1l2.05-1.72a19,19,0,0,1,12.17-4.42m0-4A22.85,22.85,0,0,0,140,93.61v0c-3.83,2.9-8.59,9.2-13.76,9.2s-9.92-6.3-13.75-9.2v0a22.94,22.94,0,1,0,0,35.18v0c3.83-2.9,8.59-8.78,13.76-8.78s9.92,5.88,13.75,8.78v0a22.93,22.93,0,1,0,14.71-40.52Z"/><circle class="cls-4" cx="97.93" cy="111.2" r="12.7"/><circle class="cls-8" cx="155.06" cy="111.2" r="12.7"/><path class="cls-4" d="M195.52,63.76a19,19,0,0,1,14.55,31.15l-1.6,1.92c-.37.41-.77.83-1.17,1.26-3.26,3.47-7.32,7.8-7.32,13.11s4.06,9.64,7.32,13.12l1.06,1.13,1.71,2a19,19,0,1,1-29.1,0l1.93-2.33c.2-.22.41-.44.61-.67,3.18-3.53,7.14-7.93,7.14-13.3s-4-9.76-7.14-13.29l-.49-.55L181,94.91a19,19,0,0,1,14.55-31.15m0-4a22.93,22.93,0,0,0-17.59,37.65h0c2.9,3.83,8.78,8.59,8.78,13.75s-5.88,9.93-8.78,13.76h0a22.93,22.93,0,1,0,35.18,0h0c-2.9-3.83-9.2-8.59-9.2-13.76s6.3-9.92,9.2-13.75h0A22.94,22.94,0,0,0,195.52,59.8Z"/><circle class="cls-4" cx="195.52" cy="82.88" r="12.7"/><circle class="cls-8" cx="195.52" cy="139.71" r="12.7"/><circle class="cls-8" cx="236.09" cy="111.2" r="12.7"/><path class="cls-8" d="M126.47,51.62a18.79,18.79,0,1,1-18.79,18.79,18.81,18.81,0,0,1,18.79-18.79m0-4a22.75,22.75,0,1,0,22.75,22.75,22.74,22.74,0,0,0-22.75-22.75Z"/><circle class="cls-8" cx="126.47" cy="70.41" r="12.7"/><path class="cls-8" d="M165.52,166.23A18.79,18.79,0,1,1,146.73,185a18.81,18.81,0,0,1,18.79-18.79m0-4A22.75,22.75,0,1,0,188.27,185a22.75,22.75,0,0,0-22.75-22.75Z"/><path class="cls-8" d="M84.15,166.05A19,19,0,1,1,72,199.57l-2.33-1.94L69,197c-3.53-3.18-7.93-7.14-13.29-7.14s-9.77,4-13.3,7.14l-.55.49-2.45,2a19,19,0,1,1,0-29.1l1.92,1.6c.41.37.83.77,1.26,1.17,3.48,3.26,7.8,7.31,13.12,7.31s9.63-4.05,13.11-7.31l1.13-1.06,2-1.71a19,19,0,0,1,12.17-4.42m0-4a22.85,22.85,0,0,0-14.71,5.34v0c-3.83,2.9-8.59,9.19-13.75,9.19s-9.93-6.29-13.76-9.19v0a22.93,22.93,0,1,0,0,35.18v0c3.83-2.9,8.59-8.78,13.76-8.78s9.92,5.88,13.75,8.78v0a22.93,22.93,0,1,0,14.71-40.52Z"/><circle class="cls-4" cx="27.36" cy="185.02" r="12.7"/><circle class="cls-8" cx="84.49" cy="185.02" r="12.7"/><path class="cls-4" d="M125,137.58a19,19,0,0,1,14.55,31.15l-1.6,1.92c-.37.41-.77.83-1.17,1.26-3.26,3.47-7.31,7.8-7.31,13.11s4.05,9.64,7.31,13.11l1.06,1.14,1.71,2a19,19,0,1,1-29.1,0l1.94-2.32.6-.67c3.18-3.54,7.14-7.94,7.14-13.3s-4-9.76-7.14-13.3c-.17-.18-.33-.37-.49-.55l-2-2.44A19,19,0,0,1,125,137.58m0-4a22.94,22.94,0,0,0-17.59,37.65h0c2.9,3.82,8.78,8.59,8.78,13.75s-5.88,9.93-8.78,13.75h0a22.93,22.93,0,1,0,35.18,0h0c-2.9-3.82-9.19-8.59-9.19-13.75s6.29-9.93,9.19-13.75h0A22.94,22.94,0,0,0,125,133.62Z"/><circle class="cls-4" cx="124.95" cy="156.7" r="12.7"/><circle class="cls-8" cx="124.95" cy="213.53" r="12.7"/><circle class="cls-8" cx="165.52" cy="185.02" r="12.7"/><path class="cls-8" d="M55.9,125.43a18.8,18.8,0,1,1-18.79,18.8,18.81,18.81,0,0,1,18.79-18.8m0-4a22.76,22.76,0,1,0,22.75,22.76A22.75,22.75,0,0,0,55.9,121.47Z"/><circle class="cls-8" cx="55.9" cy="144.23" r="12.7"/><path class="cls-8" d="M341.25,200.65a18.8,18.8,0,1,1-18.8,18.79,18.81,18.81,0,0,1,18.8-18.79m0-4A22.76,22.76,0,1,0,364,219.44a22.76,22.76,0,0,0-22.75-22.75Z"/><path class="cls-8" d="M259.88,200.47A19,19,0,1,1,247.71,234l-2.33-1.95-.67-.6c-3.54-3.18-7.93-7.14-13.3-7.14s-9.76,4-13.29,7.14l-.55.5L215.12,234a19,19,0,1,1,0-29.11l1.92,1.6c.41.37.83.77,1.26,1.17,3.47,3.26,7.8,7.32,13.11,7.32s9.64-4.06,13.12-7.32l1.13-1,2.05-1.72a19,19,0,0,1,12.17-4.42m0-4a22.85,22.85,0,0,0-14.72,5.35v0c-3.82,2.9-8.59,9.2-13.75,9.2s-9.92-6.3-13.75-9.19v0a22.94,22.94,0,1,0,0,35.17v0c3.83-2.9,8.59-8.78,13.75-8.78s9.93,5.88,13.75,8.78v0a22.93,22.93,0,1,0,14.72-40.52Z"/><circle class="cls-4" cx="203.09" cy="219.44" r="12.7"/><circle class="cls-8" cx="260.22" cy="219.44" r="12.7"/><path class="cls-4" d="M300.68,172a19,19,0,0,1,14.55,31.14l-1.6,1.92-1.17,1.26c-3.26,3.48-7.32,7.8-7.32,13.11s4.06,9.64,7.32,13.12l1.05,1.13,1.72,2.05a19,19,0,1,1-29.11,0l1.94-2.32.61-.68c3.18-3.53,7.14-7.93,7.14-13.29s-4-9.77-7.14-13.3l-.5-.55-2.05-2.45A19,19,0,0,1,300.68,172m0-4a22.92,22.92,0,0,0-17.59,37.64h0c2.9,3.83,8.78,8.59,8.78,13.76s-5.88,9.92-8.78,13.75h0a22.94,22.94,0,1,0,35.17,0h0c-2.9-3.83-9.2-8.59-9.2-13.76s6.3-9.92,9.19-13.75h0a22.92,22.92,0,0,0-17.58-37.64Z"/><circle class="cls-4" cx="300.68" cy="191.12" r="12.7"/><circle class="cls-8" cx="300.68" cy="247.96" r="12.7"/><circle class="cls-8" cx="341.25" cy="219.44" r="12.7"/><path class="cls-8" d="M231.62,159.86a18.79,18.79,0,1,1-18.79,18.79,18.81,18.81,0,0,1,18.79-18.79m0-4a22.75,22.75,0,1,0,22.75,22.75,22.76,22.76,0,0,0-22.75-22.75Z"/><circle class="cls-8" cx="231.62" cy="178.65" r="12.7"/><path class="cls-8" d="M270.68,274.47a18.79,18.79,0,1,1-18.79,18.79,18.81,18.81,0,0,1,18.79-18.79m0-4a22.75,22.75,0,1,0,22.75,22.75,22.75,22.75,0,0,0-22.75-22.75Z"/><path class="cls-8" d="M189.31,274.29a19,19,0,1,1-12.17,33.52l-2.33-1.94-.67-.6c-3.54-3.18-7.93-7.14-13.3-7.14s-9.76,4-13.29,7.14l-.55.49-2.45,2.05a19,19,0,1,1,0-29.1l1.92,1.6c.41.37.83.77,1.26,1.17,3.48,3.26,7.8,7.32,13.11,7.32s9.64-4.06,13.12-7.32c.38-.36.76-.72,1.13-1.05l2-1.72a19,19,0,0,1,12.17-4.42m0-4a22.85,22.85,0,0,0-14.71,5.34v0c-3.83,2.9-8.59,9.2-13.76,9.2s-9.92-6.3-13.75-9.2v0a22.94,22.94,0,1,0,0,35.18v0c3.83-2.9,8.59-8.78,13.75-8.78s9.93,5.88,13.76,8.78v0a22.93,22.93,0,1,0,14.71-40.52Z"/><circle class="cls-4" cx="132.52" cy="293.26" r="12.7"/><circle class="cls-8" cx="189.65" cy="293.26" r="12.7"/><path class="cls-4" d="M230.11,245.82A19,19,0,0,1,244.66,277l-1.6,1.92c-.37.41-.77.83-1.17,1.26-3.26,3.47-7.32,7.8-7.32,13.11s4.06,9.64,7.32,13.12l1.06,1.13,1.71,2.05a19,19,0,1,1-29.11,0l1.94-2.33c.2-.22.41-.44.61-.67,3.18-3.54,7.14-7.93,7.14-13.3s-4-9.76-7.14-13.29l-.5-.55-2-2.45a19,19,0,0,1,14.56-31.15m0-4a22.93,22.93,0,0,0-17.59,37.65h0c2.9,3.83,8.78,8.59,8.78,13.75s-5.88,9.93-8.78,13.75h0a22.93,22.93,0,1,0,35.18,0h0c-2.9-3.82-9.2-8.59-9.2-13.75s6.3-9.92,9.2-13.75h0a22.94,22.94,0,0,0-17.59-37.65Z"/><circle class="cls-4" cx="230.11" cy="264.94" r="12.7"/><circle class="cls-8" cx="230.11" cy="321.77" r="12.7"/><circle class="cls-8" cx="270.68" cy="293.26" r="12.7"/><path class="cls-8" d="M161.06,233.68a18.79,18.79,0,1,1-18.79,18.79,18.81,18.81,0,0,1,18.79-18.79m0-4a22.75,22.75,0,1,0,22.75,22.75,22.74,22.74,0,0,0-22.75-22.75Z"/><circle class="cls-8" cx="161.06" cy="252.47" r="12.7"/><path class="cls-8" d="M447.79,309.93A18.79,18.79,0,1,1,429,328.72a18.81,18.81,0,0,1,18.79-18.79m0-4a22.75,22.75,0,1,0,22.75,22.75A22.75,22.75,0,0,0,447.79,306Z"/><path class="cls-8" d="M366.42,309.75a19,19,0,1,1-12.17,33.52l-2.32-1.94-.68-.61c-3.53-3.18-7.93-7.13-13.29-7.13s-9.76,4-13.3,7.14l-.55.49-2.44,2a19,19,0,1,1,0-29.1l1.92,1.6c.4.37.83.76,1.26,1.17,3.47,3.26,7.8,7.31,13.11,7.31s9.64-4.05,13.11-7.31l1.13-1.06,2.05-1.71a19,19,0,0,1,12.17-4.42m0-4a22.85,22.85,0,0,0-14.71,5.34v0c-3.82,2.9-8.59,9.19-13.75,9.19S328,314,324.21,311.1v0a22.93,22.93,0,1,0,0,35.18v0c3.82-2.9,8.59-8.78,13.75-8.78s9.93,5.88,13.75,8.77h0a22.93,22.93,0,1,0,14.71-40.52Z"/><circle class="cls-4" cx="309.64" cy="328.72" r="12.7"/><circle class="cls-8" cx="366.77" cy="328.72" r="12.7"/><path class="cls-4" d="M407.22,281.28a19,19,0,0,1,14.56,31.14l-1.61,1.93c-.37.4-.76.83-1.17,1.26-3.25,3.47-7.31,7.8-7.31,13.11s4.06,9.64,7.32,13.11l1.05,1.14,1.72,2a19,19,0,1,1-29.11,0l1.94-2.32c.2-.22.4-.45.61-.67,3.18-3.54,7.14-7.94,7.14-13.3s-4-9.76-7.14-13.3l-.5-.55-2.05-2.45a19,19,0,0,1,14.55-31.14m0-4A22.94,22.94,0,0,0,389.63,315h0c2.89,3.82,8.78,8.59,8.78,13.75s-5.88,9.93-8.78,13.75h0a22.94,22.94,0,1,0,35.18,0h0c-2.89-3.83-9.19-8.59-9.19-13.75s6.3-9.93,9.19-13.75h0a22.93,22.93,0,0,0-17.59-37.65Z"/><circle class="cls-4" cx="407.22" cy="300.4" r="12.7"/><circle class="cls-8" cx="407.22" cy="357.23" r="12.7"/><circle class="cls-8" cx="447.79" cy="328.72" r="12.7"/><path class="cls-8" d="M338.17,269.13a18.79,18.79,0,1,1-18.79,18.79,18.81,18.81,0,0,1,18.79-18.79m0-4a22.75,22.75,0,1,0,22.75,22.75,22.76,22.76,0,0,0-22.75-22.75Z"/><circle class="cls-8" cx="338.17" cy="287.92" r="12.7"/><path class="cls-8" d="M483.72,52.3a18.8,18.8,0,1,1-18.79,18.79A18.81,18.81,0,0,1,483.72,52.3m0-4a22.76,22.76,0,1,0,22.75,22.75,22.76,22.76,0,0,0-22.75-22.75Z"/><path class="cls-8" d="M402.35,52.12a19,19,0,1,1-12.17,33.53l-2.33-2-.67-.6c-3.53-3.18-7.93-7.14-13.29-7.14s-9.76,4-13.3,7.14l-.55.5-2.45,2.05a19,19,0,1,1,0-29.11l1.93,1.6,1.25,1.17c3.48,3.26,7.8,7.32,13.12,7.32s9.64-4.06,13.11-7.32l1.13-1.05,2.05-1.72a19,19,0,0,1,12.17-4.42m0-4a22.8,22.8,0,0,0-14.71,5.35v0c-3.83,2.9-8.59,9.2-13.75,9.2s-9.93-6.3-13.75-9.19v0a22.94,22.94,0,1,0,0,35.17v0c3.82-2.9,8.59-8.78,13.75-8.78s9.92,5.88,13.75,8.78v0a22.93,22.93,0,1,0,14.71-40.52Z"/><circle class="cls-4" cx="345.57" cy="71.1" r="12.7"/><circle class="cls-8" cx="402.7" cy="71.1" r="12.7"/><path class="cls-4" d="M443.15,23.66A19,19,0,0,1,457.7,54.8l-1.6,1.92q-.56.62-1.17,1.26c-3.26,3.48-7.31,7.8-7.31,13.11s4.05,9.64,7.31,13.12L456,85.34l1.71,2a19,19,0,1,1-29.1,0l1.94-2.32.6-.68c3.19-3.53,7.14-7.93,7.14-13.29s-4-9.77-7.14-13.3c-.16-.19-.33-.37-.49-.55l-2-2.45a19,19,0,0,1,14.55-31.14m0-4a22.93,22.93,0,0,0-17.59,37.64h0c2.9,3.83,8.78,8.59,8.78,13.76s-5.88,9.92-8.77,13.75h0a22.94,22.94,0,1,0,35.18,0h0c-2.9-3.83-9.19-8.59-9.19-13.76s6.29-9.92,9.19-13.75h0A22.92,22.92,0,0,0,443.15,19.7Z"/><circle class="cls-4" cx="443.15" cy="42.77" r="12.7"/><circle class="cls-8" cx="443.15" cy="99.61" r="12.7"/><circle class="cls-8" cx="483.72" cy="71.1" r="12.7"/><path class="cls-8" d="M374.1,11.51A18.79,18.79,0,1,1,355.31,30.3,18.81,18.81,0,0,1,374.1,11.51m0-4A22.75,22.75,0,1,0,396.85,30.3,22.76,22.76,0,0,0,374.1,7.55Z"/><circle class="cls-8" cx="374.1" cy="30.3" r="12.7"/><path class="cls-8" d="M306.47,16.21A18.79,18.79,0,1,1,287.68,35a18.81,18.81,0,0,1,18.79-18.79m0-4A22.75,22.75,0,1,0,329.22,35a22.76,22.76,0,0,0-22.75-22.75Z"/><path class="cls-8" d="M225.1,16a19,19,0,1,1-12.17,33.52l-2.33-1.94-.67-.6c-3.53-3.18-7.93-7.14-13.29-7.14s-9.76,4-13.3,7.14l-.55.49-2.45,2a19,19,0,1,1,0-29.1l1.93,1.6,1.26,1.17c3.47,3.26,7.8,7.31,13.11,7.31s9.64-4.05,13.11-7.31l1.13-1.06,2.05-1.71A19,19,0,0,1,225.1,16m0-4a22.85,22.85,0,0,0-14.71,5.34v0c-3.83,2.9-8.59,9.19-13.75,9.19s-9.93-6.29-13.75-9.19v0a22.93,22.93,0,1,0,0,35.18v0c3.82-2.9,8.59-8.78,13.75-8.78s9.93,5.88,13.75,8.78v0A22.93,22.93,0,1,0,225.1,12.07Z"/><circle class="cls-4" cx="168.32" cy="35" r="12.7"/><circle class="cls-8" cx="225.45" cy="35" r="12.7"/><path class="cls-4" d="M265.9-12.44a19,19,0,0,1,14.56,31.15l-1.61,1.92q-.56.61-1.17,1.26c-3.26,3.47-7.31,7.8-7.31,13.11s4.06,9.64,7.31,13.11l1.06,1.14,1.72,2a19,19,0,1,1-29.11,0L253.29,49c.2-.22.4-.45.61-.67C257.08,44.76,261,40.36,261,35s-4-9.76-7.14-13.3l-.5-.55-2.05-2.44A19,19,0,0,1,265.9-12.44m0-4a22.94,22.94,0,0,0-17.59,37.65h0c2.89,3.82,8.78,8.59,8.78,13.75s-5.89,9.93-8.78,13.75h0a22.94,22.94,0,1,0,35.18,0h0c-2.89-3.82-9.19-8.59-9.19-13.75s6.29-9.93,9.19-13.75h0A22.93,22.93,0,0,0,265.9-16.4Z"/><circle class="cls-4" cx="265.9" cy="6.68" r="12.7"/><circle class="cls-8" cx="265.9" cy="63.51" r="12.7"/><circle class="cls-8" cx="306.47" cy="35" r="12.7"/><path class="cls-8" d="M196.85-24.59a18.81,18.81,0,0,1,18.79,18.8A18.81,18.81,0,0,1,196.85,13,18.81,18.81,0,0,1,178.06-5.79a18.81,18.81,0,0,1,18.79-18.8m0-4A22.76,22.76,0,0,0,174.1-5.79,22.76,22.76,0,0,0,196.85,17,22.75,22.75,0,0,0,219.6-5.79a22.75,22.75,0,0,0-22.75-22.76Z"/><circle class="cls-8" cx="196.85" cy="-5.79" r="12.7"/><path class="cls-8" d="M413.15,126.12a18.79,18.79,0,1,1-18.79,18.79,18.81,18.81,0,0,1,18.79-18.79m0-4a22.75,22.75,0,1,0,22.75,22.75,22.76,22.76,0,0,0-22.75-22.75Z"/><path class="cls-8" d="M331.78,125.94a19,19,0,1,1-12.17,33.52l-2.33-1.94-.67-.6c-3.53-3.18-7.93-7.14-13.29-7.14s-9.76,4-13.3,7.14l-.55.49L287,159.46a19,19,0,1,1,0-29.1L289,132l1.26,1.17c3.47,3.26,7.8,7.32,13.11,7.32s9.64-4.06,13.11-7.32l1.13-1,2.05-1.72a19,19,0,0,1,12.17-4.42m0-4a22.85,22.85,0,0,0-14.71,5.34v0c-3.82,2.9-8.59,9.2-13.75,9.2s-9.93-6.3-13.75-9.2v0a22.94,22.94,0,1,0,0,35.18v0c3.82-2.9,8.59-8.78,13.75-8.78s9.93,5.88,13.75,8.78v0A22.93,22.93,0,1,0,331.78,122Z"/><circle class="cls-4" cx="275" cy="144.91" r="12.7"/><circle class="cls-8" cx="332.13" cy="144.91" r="12.7"/><path class="cls-4" d="M372.58,97.47a19,19,0,0,1,14.56,31.15l-1.61,1.92q-.55.61-1.17,1.26c-3.26,3.47-7.31,7.8-7.31,13.11s4.06,9.64,7.31,13.12c.37.38.72.76,1.06,1.13l1.72,2.05a19,19,0,1,1-29.11,0l1.94-2.33.61-.67c3.18-3.54,7.14-7.93,7.14-13.3s-4-9.76-7.14-13.29l-.5-.55L358,128.62a19,19,0,0,1,14.55-31.15m0-4A22.94,22.94,0,0,0,355,131.16h0c2.89,3.83,8.78,8.59,8.78,13.75s-5.89,9.93-8.78,13.75h0a22.94,22.94,0,1,0,35.18,0h0c-2.89-3.82-9.19-8.59-9.19-13.75s6.3-9.92,9.19-13.75h0a22.93,22.93,0,0,0-17.59-37.65Z"/><circle class="cls-4" cx="372.58" cy="116.59" r="12.7"/><circle class="cls-8" cx="372.58" cy="173.42" r="12.7"/><circle class="cls-8" cx="413.15" cy="144.91" r="12.7"/><path class="cls-8" d="M303.53,85.33a18.79,18.79,0,1,1-18.79,18.79,18.81,18.81,0,0,1,18.79-18.79m0-4a22.75,22.75,0,1,0,22.75,22.75,22.75,22.75,0,0,0-22.75-22.75Z"/><circle class="cls-8" cx="303.53" cy="104.12" r="12.7"/><path class="cls-8" d="M507.51,160.36a19,19,0,1,1-12.17,33.53L493,192l-.67-.61c-3.53-3.18-7.93-7.14-13.29-7.14s-9.77,4-13.3,7.14l-.55.5-2.45,2a19,19,0,1,1,0-29.11l1.92,1.61q.61.56,1.26,1.17c3.48,3.26,7.8,7.31,13.11,7.31s9.64-4.06,13.12-7.32l1.13-1.05,2-1.72a19,19,0,0,1,12.17-4.42m0-4a22.8,22.8,0,0,0-14.71,5.35v0c-3.83,2.89-8.59,9.19-13.76,9.19s-9.92-6.3-13.75-9.19v0a22.93,22.93,0,1,0,0,35.18h0c3.83-2.89,8.59-8.78,13.76-8.78s9.92,5.89,13.75,8.78h0a22.93,22.93,0,1,0,14.71-40.53Z"/><circle class="cls-4" cx="450.72" cy="179.34" r="12.7"/><path class="cls-8" d="M479.26,119.75a18.79,18.79,0,1,1-18.79,18.79,18.81,18.81,0,0,1,18.79-18.79m0-4A22.75,22.75,0,1,0,502,138.54a22.75,22.75,0,0,0-22.75-22.75Z"/><circle class="cls-8" cx="479.26" cy="138.54" r="12.7"/><path class="cls-8" d="M436.94,234.18a19,19,0,1,1-12.17,33.53l-2.33-1.95-.67-.6c-3.53-3.18-7.93-7.14-13.29-7.14s-9.76,4-13.3,7.14l-.55.5-2.45,2a19,19,0,1,1,0-29.11l1.92,1.6c.41.37.83.77,1.26,1.17,3.48,3.26,7.8,7.32,13.12,7.32s9.64-4.06,13.11-7.32l1.13-1.05,2-1.72a19,19,0,0,1,12.17-4.42m0-4a22.8,22.8,0,0,0-14.71,5.35v0c-3.83,2.9-8.59,9.2-13.75,9.2s-9.93-6.3-13.76-9.2v0a22.94,22.94,0,1,0,0,35.17v0c3.83-2.9,8.59-8.78,13.76-8.78s9.92,5.88,13.75,8.78v0a22.93,22.93,0,1,0,14.71-40.52Z"/><circle class="cls-4" cx="380.15" cy="253.15" r="12.7"/><circle class="cls-8" cx="437.29" cy="253.15" r="12.7"/><path class="cls-4" d="M477.74,205.72a19,19,0,0,1,14.55,31.14l-1.6,1.92c-.37.41-.77.83-1.17,1.26-3.26,3.48-7.31,7.8-7.31,13.11s4.05,9.64,7.31,13.12l1.06,1.13,1.71,2.05a19,19,0,1,1-29.1,0l1.94-2.32.6-.68c3.18-3.53,7.14-7.93,7.14-13.3s-4-9.76-7.14-13.29c-.16-.19-.33-.37-.49-.55l-2.05-2.45a19,19,0,0,1,14.55-31.14m0-4a22.93,22.93,0,0,0-17.59,37.64h0c2.9,3.83,8.78,8.59,8.78,13.75s-5.88,9.93-8.78,13.76h0a22.93,22.93,0,1,0,35.18,0h0c-2.9-3.83-9.19-8.59-9.19-13.76s6.29-9.92,9.19-13.75h0a22.93,22.93,0,0,0-17.59-37.64Z"/><circle class="cls-4" cx="477.74" cy="224.83" r="12.7"/><circle class="cls-8" cx="477.74" cy="281.66" r="12.7"/><path class="cls-8" d="M408.69,193.57a18.79,18.79,0,1,1-18.79,18.79,18.81,18.81,0,0,1,18.79-18.79m0-4a22.75,22.75,0,1,0,22.75,22.75,22.74,22.74,0,0,0-22.75-22.75Z"/><circle class="cls-8" cx="408.69" cy="212.36" r="12.7"/></g><path class="cls-8" d="M236.38,23.67a14.45,14.45,0,0,1,7.23,1.94l174.1,100.51a14.52,14.52,0,0,1,7.23,12.53v201a14.52,14.52,0,0,1-7.23,12.53L243.61,452.72a14.46,14.46,0,0,1-14.47,0L55.05,352.21a14.51,14.51,0,0,1-7.24-12.53v-201a14.51,14.51,0,0,1,7.24-12.53L229.14,25.61a14.49,14.49,0,0,1,7.24-1.94m0-4a18.47,18.47,0,0,0-9.24,2.47L53.05,122.65a18.47,18.47,0,0,0-9.24,16v201a18.44,18.44,0,0,0,9.24,16L227.14,456.19a18.5,18.5,0,0,0,18.47,0l174.1-100.52a18.45,18.45,0,0,0,9.23-16v-201a18.48,18.48,0,0,0-9.23-16L245.61,22.14a18.41,18.41,0,0,0-9.23-2.47Z"/><path class="cls-4" d="M67.42,339.81a1.13,1.13,0,0,1-.76.57,1.28,1.28,0,0,1-1-.13,1.19,1.19,0,0,1-.6-.77,1.28,1.28,0,0,1,.15-.93l9.36-16.16a1.2,1.2,0,0,1,.76-.59,1.32,1.32,0,0,1,1.55.89,1.22,1.22,0,0,1-.14,1Z"/><path class="cls-4" d="M134.52,355.62a1.07,1.07,0,0,1,.55.73,1.28,1.28,0,0,1-.15.93l-6,10.38a8.17,8.17,0,0,1-3,3.07,8.25,8.25,0,0,1-11.11-3.06,7.78,7.78,0,0,1-1-4,8.33,8.33,0,0,1,1.17-4.14l6-10.38a1.21,1.21,0,0,1,.74-.59,1.24,1.24,0,0,1,1,.15,1.21,1.21,0,0,1,.56.75,1.15,1.15,0,0,1-.11.94l-6,10.39a5.64,5.64,0,0,0-.83,2.94,5.53,5.53,0,0,0,2.79,4.83,5.71,5.71,0,0,0,2.83.78,5.84,5.84,0,0,0,2.84-.71,5.59,5.59,0,0,0,2.17-2.17l6-10.38a1.28,1.28,0,0,1,.7-.6A1,1,0,0,1,134.52,355.62Z"/><path class="cls-4" d="M153,366.69a1.07,1.07,0,0,0-.55-.68,1,1,0,0,0-.85-.13,1.07,1.07,0,0,0-.67.53L143,380l-2.5-20.34a1,1,0,0,0-.22-.5,1.84,1.84,0,0,0-.43-.37,1.21,1.21,0,0,0-.89-.13,1.16,1.16,0,0,0-.74.59l-9.43,16.29a1.08,1.08,0,0,0-.14.85,1,1,0,0,0,.52.66,1.07,1.07,0,0,0,1.55-.39l7.81-13.48,2.5,20.29a1,1,0,0,0,.22.46,1.44,1.44,0,0,0,.42.36,1.21,1.21,0,0,0,.93.14,1.23,1.23,0,0,0,.78-.61l9.4-16.25A1.1,1.1,0,0,0,153,366.69Z"/><path class="cls-8" d="M191.81,388.82A5.64,5.64,0,0,1,194,391a5.86,5.86,0,0,1,.69,3,6.61,6.61,0,0,1-1,3.18,6.81,6.81,0,0,1-2.29,2.41,6,6,0,0,1-3,.94,5.44,5.44,0,0,1-3-.77l-5.31-3.07.37-.21-3.82,6.59a1.22,1.22,0,0,1-.73.59,1.18,1.18,0,0,1-1.47-.85,1.26,1.26,0,0,1,.16-.92L184,385.72a1.2,1.2,0,0,1,1.66-.44Zm-5.18,8.95a3,3,0,0,0,1.79.41,3.92,3.92,0,0,0,1.78-.68,4.57,4.57,0,0,0,1.41-1.52,4.31,4.31,0,0,0,.62-2,3.73,3.73,0,0,0-.34-1.82,3,3,0,0,0-1.25-1.33l-5.31-3.08.35-.18-4.33,7.48,0-.37Z"/><path class="cls-8" d="M201.93,398.32l-14.8,11.4a1.13,1.13,0,0,1-.66.29,1.1,1.1,0,0,1-.65-.14,1.07,1.07,0,0,1-.58-.68,1.24,1.24,0,0,1,.4-1.13L202,395.51a1.15,1.15,0,0,1,.71-.31,1.19,1.19,0,0,1,.7.22,1.24,1.24,0,0,1,.51.53,1.12,1.12,0,0,1,.09.72l-2.7,20.23a1.4,1.4,0,0,1-.16.46,1.12,1.12,0,0,1-.75.57,1.21,1.21,0,0,1-.86-.14,1.11,1.11,0,0,1-.47-.51,1.19,1.19,0,0,1-.09-.75L201.37,398Zm-11,7.9,2.07-1.53,7.77,4.5-.79,2.27Z"/><path class="cls-8" d="M226.1,410.29a1,1,0,0,1,.1,1,1.23,1.23,0,0,1-.74.72.91.91,0,0,1-.82,0,1.68,1.68,0,0,1-.64-.58,9,9,0,0,0-1.38-1.9,8.81,8.81,0,0,0-5.05-2.61,7.7,7.7,0,0,0-3.1.21,8,8,0,0,0-2.79,1.46,9.16,9.16,0,0,0-2.24,2.65,9.64,9.64,0,0,0-1.24,3.4,8.08,8.08,0,0,0,.17,3.19,7.54,7.54,0,0,0,1.38,2.74,8.57,8.57,0,0,0,2.47,2.09,8.38,8.38,0,0,0,2.23.91,8.61,8.61,0,0,0,2.37.25,1.38,1.38,0,0,1,.81.3,1.17,1.17,0,0,1,.42.73,1.3,1.3,0,0,1-.28,1,1,1,0,0,1-.88.38,11.94,11.94,0,0,1-1.91-.14,13.36,13.36,0,0,1-2-.5,11.2,11.2,0,0,1-5.1-3.59,10.2,10.2,0,0,1-1.87-3.59,10.38,10.38,0,0,1-.31-4.14,11.53,11.53,0,0,1,1.52-4.34,11.28,11.28,0,0,1,2.87-3.33,10.44,10.44,0,0,1,3.69-1.82A10.69,10.69,0,0,1,221.9,406a11,11,0,0,1,2.44,1.9A10.38,10.38,0,0,1,226.1,410.29Z"/><path class="cls-8" d="M232.1,412.16l9.31,5.39a1.22,1.22,0,0,1,.59.73,1.09,1.09,0,0,1-.11.91,1.05,1.05,0,0,1-.73.54,1.32,1.32,0,0,1-.92-.17l-8.42-4.87.5-.31L228.48,421l-.09-.43,7.27,4.21a1.23,1.23,0,0,1,.59.72,1.11,1.11,0,0,1-.11.92,1,1,0,0,1-.73.53,1.26,1.26,0,0,1-.92-.16l-7.19-4.17.32-.12-3.92,6.77,0-.28,8.34,4.84a1.18,1.18,0,0,1,.58.75,1.13,1.13,0,0,1-.1.89,1.11,1.11,0,0,1-.74.55,1.25,1.25,0,0,1-.92-.15l-9.31-5.4a1.1,1.1,0,0,1-.56-.74,1.21,1.21,0,0,1,.13-.93l9.38-16.19a1.13,1.13,0,0,1,.73-.57A1.15,1.15,0,0,1,232.1,412.16Z"/><path class="cls-4" d="M85.84,351.85a1.16,1.16,0,0,1-.42-1.57l8.24-14.22-7.59,3.6a3.28,3.28,0,0,1-3.13-.14,3.32,3.32,0,0,1-1.64-2.67l-.55-8.62-8.39,14.49a1.14,1.14,0,1,1-2-1.15l9.06-15.65a1.88,1.88,0,0,1,3.5.82l.64,10a1,1,0,0,0,.52.85,1.11,1.11,0,0,0,1,0l8.78-4.17a1.88,1.88,0,0,1,2.19.43,1.86,1.86,0,0,1,.24,2.21l-8.9,15.37A1.14,1.14,0,0,1,85.84,351.85Z"/><path class="cls-4" d="M106.41,363.76a1.14,1.14,0,0,1-.41-1.56L114.24,348l-7.59,3.6a3.25,3.25,0,0,1-3.14-.14,3.35,3.35,0,0,1-1.64-2.67l-.55-8.61-8.39,14.48a1.13,1.13,0,0,1-1.56.42,1.15,1.15,0,0,1-.42-1.56L100,337.83a1.88,1.88,0,0,1,3.5.82l.63,10a1.08,1.08,0,0,0,.52.84,1.11,1.11,0,0,0,1,.05l8.78-4.17a1.85,1.85,0,0,1,2.18.42,1.89,1.89,0,0,1,.25,2.22L108,363.35A1.15,1.15,0,0,1,106.41,363.76Z"/><path class="cls-8" d="M174.81,394.6a4,4,0,0,0,.1-.59,4.49,4.49,0,0,0-.33-2.18,7,7,0,0,0-.78-1.37,7.37,7.37,0,0,0-.47-.67c-.28-.33-.58-.67-.9-1s-.65-.69-1-1a20.17,20.17,0,0,1-1.69-1.91l0,0a5.33,5.33,0,0,1-.75-1.37,4.27,4.27,0,0,1-.13-.48,2.61,2.61,0,0,1,0-.48,3,3,0,0,1,1.77-2.65l.43-.13h0l.11,0a4.09,4.09,0,0,1,.87-.07l.53.06a6.63,6.63,0,0,1,2.18.81l.09,0h0a7.32,7.32,0,0,1,.76.52,6.77,6.77,0,0,1,.69.63,6.64,6.64,0,0,1,.6.71,6.87,6.87,0,0,1,.5.74l.1.22a4.79,4.79,0,0,1,.49,1.29.91.91,0,0,0,.4.5,1.14,1.14,0,0,0,.91.1,1.12,1.12,0,0,0,.73-.52,1.21,1.21,0,0,0,.13-.7,2.3,2.3,0,0,0-.1-.54,6,6,0,0,0-.92-2,7.76,7.76,0,0,0-.5-.67,9.88,9.88,0,0,0-1.21-1.21c-.22-.18-.45-.36-.69-.53s-.49-.32-.75-.48l-.44-.22a8.69,8.69,0,0,0-2.17-.83,6.45,6.45,0,0,0-.86-.15,7.81,7.81,0,0,0-.83,0,5.43,5.43,0,0,0-2.27.51,5,5,0,0,0-1.79,1.43,6.22,6.22,0,0,0-1,1.82,4.44,4.44,0,0,0-.24,1.1,3.13,3.13,0,0,0,0,.53,4.37,4.37,0,0,0,.25,1.52.09.09,0,0,0,0,.05c0,.09.09.19.13.29a8,8,0,0,0,1,1.7,16.34,16.34,0,0,0,1.76,1.94c.38.36.73.71,1.05,1.06a12.56,12.56,0,0,1,.85,1c.13.18.24.35.34.52a5.36,5.36,0,0,1,.47,1,3.36,3.36,0,0,1,.13.5,2.75,2.75,0,0,1-.14,1.52,3.41,3.41,0,0,1-.24.52,2.7,2.7,0,0,1-.27.39,2.64,2.64,0,0,1-1.12.78,3.72,3.72,0,0,1-1,.2,4.79,4.79,0,0,1-1.06,0,6.43,6.43,0,0,1-2.24-.82,7.44,7.44,0,0,1-2.32-2c-.14-.19-.28-.4-.41-.61a8.77,8.77,0,0,1-.89-2.12,1.11,1.11,0,0,0-.18-.38,1,1,0,0,0-.3-.27,1.08,1.08,0,0,0-.91-.1,1.38,1.38,0,0,0-.42.21,1.22,1.22,0,0,0-.43.77.52.52,0,0,0,0,.11,1.42,1.42,0,0,0,0,.36,1.49,1.49,0,0,0,0,.21,10.93,10.93,0,0,0,1.2,2.65c.17.26.34.5.52.74s.39.45.61.67a11.43,11.43,0,0,0,2.39,1.81,10.08,10.08,0,0,0,1.73.77,8.82,8.82,0,0,0,1.1.27l.63.09a6.46,6.46,0,0,0,1.71-.05,5.86,5.86,0,0,0,1.11-.3l.33-.12.26-.14a4.85,4.85,0,0,0,2-1.91A6.43,6.43,0,0,0,174.81,394.6Z"/><path class="cls-4" d="M156.87,392.38l0-.1a5,5,0,0,1-.16-1.43c0-.2,0-.4.07-.6L150,386.36l3.68-6.35,9.2,5.32a7.66,7.66,0,0,1-.3-2.86L154.89,378l3.4-5.88,7.65,4.42a8,8,0,0,1,1.35-.83,7.56,7.56,0,0,1,1.12-.42l-10.07-5.84a1.2,1.2,0,0,0-1.66.44l-9.37,16.19a1.23,1.23,0,0,0-.14.93,1.16,1.16,0,0,0,.56.75l9.44,5.46C157.06,392.94,157,392.67,156.87,392.38Z"/><path d="M164.86,384.41a1.37,1.37,0,0,0-.29.34,1.14,1.14,0,0,0-.14.43,1.14,1.14,0,0,1,.14-.43A1.37,1.37,0,0,1,164.86,384.41Z"/></svg>