<?xml version="1.0" encoding="UTF-8"?>
<svg width="211px" height="32px" viewBox="0 0 211 32" version="1.1" xmlns="http://www.w3.org/2000/svg" xmlns:xlink="http://www.w3.org/1999/xlink">
    <title>immunespace_lockup_whiteblue</title>
    <g id="Symbols" stroke="none" stroke-width="1" fill="none" fill-rule="evenodd">
        <g id="footer" transform="translate(-160.000000, -24.000000)">
            <g id="immunespace_lockup_whiteblue" transform="translate(160.000000, 24.000000)">
                <path d="M44.3471549,12.2394854 C47.176252,12.2394854 49.4696883,14.5329217 49.4696883,17.3620188 C49.4696883,20.1911159 47.176252,22.4845522 44.3471549,22.4845522 C41.5180578,22.4845522 39.2246215,20.1911159 39.2246215,17.3620188 C39.2246215,14.5329217 41.5180578,12.2394854 44.3471549,12.2394854 M44.3471549,11.1602573 C40.9220166,11.1602573 38.1453934,13.9368805 38.1453934,17.3620188 C38.1453934,20.7871571 40.9220166,23.5637803 44.3471549,23.5637803 C47.7722932,23.5637803 50.5489164,20.7871571 50.5489164,17.3620188 C50.5489164,13.9368805 47.7722932,11.1602573 44.3471549,11.1602573 L44.3471549,11.1602573 Z" id="Shape" fill="#0F91F2" fill-rule="nonzero"></path>
                <path d="M22.1773775,12.2394854 C24.4716003,12.2263632 26.5006774,13.7251452 27.1626139,15.9218406 C27.8245503,18.1185359 26.9613598,20.4888531 25.0418425,21.7454691 C23.1223252,23.0020851 20.6046177,22.8450797 18.856091,21.3597229 L18.240475,20.8277091 L18.0580703,20.6605047 C17.0928451,19.7940821 15.8920139,18.714854 14.4327759,18.714854 C12.9735379,18.714854 11.7727066,19.7940821 10.8074814,20.6605047 L10.6554775,20.7973083 L9.99426027,21.3521227 C7.89438428,23.1155689 4.78357431,22.9352226 2.90154979,20.9409294 C1.01952528,18.9466361 1.01952528,15.8306028 2.90154979,13.8363096 C4.78357431,11.8420164 7.89438428,11.6616701 9.99426027,13.4251163 L10.5186739,13.8583276 L10.8606828,14.1775359 C11.8031074,15.066759 12.9811381,16.1687877 14.4327759,16.1687877 C15.8844137,16.1687877 17.0624443,15.066759 18.0048689,14.1775359 L18.316477,13.8887284 L18.8712914,13.4251163 C19.8020794,12.6577626 20.9710621,12.2385413 22.1773775,12.2394854 M22.1773775,11.1602573 C20.7094134,11.1576462 19.2878778,11.6745682 18.164473,12.6194953 L18.164473,12.6194953 C17.1232459,13.3795151 15.8236121,15.1199604 14.4175755,15.1199604 C13.0115388,15.1199604 11.711905,13.3795151 10.6402771,12.5890945 L10.6402771,12.5890945 C8.10210308,10.459685 4.34378444,10.678798 2.07025791,13.0887335 C-0.203268615,15.4986691 -0.203268615,19.2633695 2.07025791,21.673305 C4.34378444,24.0832406 8.10210308,24.3023536 10.6402771,22.1729441 L10.6402771,22.1729441 C11.6815042,21.4129243 12.9811381,19.7788817 14.3871747,19.7788817 C15.7932113,19.7788817 17.0928451,21.3825235 18.1340722,22.1729441 L18.1340722,22.1729441 C20.2505838,23.9399554 23.2751879,24.1105645 25.5769854,22.5927772 C27.878783,21.0749899 28.9134342,18.2277396 28.1230439,15.5862943 C27.3326537,12.9448489 24.9041373,11.1338699 22.1469767,11.1298565 L22.1773775,11.1602573 Z" id="Shape" fill="#0F91F2" fill-rule="nonzero"></path>
                <circle id="Oval" fill="#FFFFFF" fill-rule="nonzero" cx="6.69577437" cy="17.3924196" r="3.45809005"></circle>
                <circle id="Oval" fill="#0F91F2" fill-rule="nonzero" cx="22.2685799" cy="17.3924196" r="3.45809005"></circle>
                <path d="M33.2888669,4.46448165 C35.2958275,4.46355026 37.1212949,5.62628219 37.9689385,7.44545567 C38.8165821,9.26462915 38.532637,11.4102414 37.2409698,12.9463038 L36.8077585,13.4707175 C36.708956,13.5847204 36.594953,13.6987234 36.4885502,13.8127264 C35.5993271,14.7627511 34.4972984,15.9407818 34.4972984,17.3924196 C34.4972984,18.8440574 35.5993271,20.0144879 36.4885502,20.9645126 L36.7773577,21.2685205 L37.2409698,21.8309352 C39.004416,23.9308112 38.8240697,27.0416211 36.8297765,28.9236457 C34.8354832,30.8056702 31.71945,30.8056702 29.7251567,28.9236457 C27.7308635,27.0416211 27.5505172,23.9308112 29.3139634,21.8309352 L29.838377,21.2001188 C29.8915784,21.1393172 29.95238,21.0785156 30.0055814,21.0101138 C30.872004,20.0524889 31.9512321,18.8516576 31.9512321,17.3924196 C31.9512321,15.9331816 30.8872044,14.7323503 30.0207818,13.759525 L29.8839782,13.607521 L29.3291638,12.9387036 C28.0414622,11.4013668 27.7609877,9.2572379 28.609929,7.44040583 C29.4588702,5.62357375 31.2834796,4.46307601 33.2888669,4.46448165 M33.2888669,3.38525019 C29.8385438,3.38525019 27.0415042,6.18229437 27.0415042,9.63261752 C27.0373946,11.0985481 27.5546077,12.5181903 28.5007422,13.6379218 L28.5007422,13.6379218 C29.260762,14.6867491 30.8948046,15.9787828 30.8948046,17.3924196 C30.8948046,18.8060564 29.2911628,20.0980901 28.5007422,21.1393172 L28.5007422,21.1393172 C27.5512115,22.2630333 27.033778,23.6886703 27.0415042,25.1598219 C26.8785458,27.4930328 28.0309178,29.7222253 30.0287337,30.9384328 C32.0265496,32.1546402 34.5359838,32.1546402 36.5337997,30.9384328 C38.5316156,29.7222253 39.6839876,27.4930328 39.5210292,25.1598219 C39.5251388,23.6938913 39.0079257,22.2742491 38.0617912,21.1545176 L38.0617912,21.1545176 C37.3017714,20.1132905 35.5613261,18.8136566 35.5613261,17.40762 C35.5613261,16.0015834 37.2713706,14.7019495 38.0617912,13.6531222 L38.0617912,13.6531222 C39.0113219,12.5294061 39.5287554,11.103769 39.5210292,9.63261752 C39.5210304,7.97439625 38.8617848,6.38420224 37.6885328,5.21237574 C36.5152807,4.04054925 34.9242863,3.38323752 33.2660663,3.38525019 L33.2888669,3.38525019 Z" id="Shape" fill="#FFFFFF" fill-rule="nonzero"></path>
                <circle id="Oval" fill="#FFFFFF" fill-rule="nonzero" cx="33.2888669" cy="9.67061851" r="3.45809005"></circle>
                <circle id="Oval" fill="#0F91F2" fill-rule="nonzero" cx="33.2888669" cy="25.1598219" r="3.45809005"></circle>
                <circle id="Oval" fill="#0F91F2" fill-rule="nonzero" cx="44.3471549" cy="17.3924196" r="3.45809005"></circle>
                <path d="M14.478377,1.15079664 C17.3074741,1.15079664 19.6009104,3.44423296 19.6009104,6.27333003 C19.6009104,9.10242711 17.3074741,11.3958634 14.478377,11.3958634 C11.64928,11.3958634 9.35584364,9.10242711 9.35584364,6.27333003 C9.35584364,3.44423296 11.64928,1.15079664 14.478377,1.15079664 M14.478377,0.0715638403 C11.9693093,0.0684936902 9.70559053,1.5775533 8.74328054,3.89474767 C7.78097056,6.21194205 8.30968932,8.88067586 10.0827813,10.6559434 C11.8558733,12.431211 14.5239568,12.9632019 16.8423295,12.0037341 C19.1607021,11.0442663 20.6725383,8.78239964 20.6725383,6.27333003 C20.6683507,2.85412529 17.8975818,0.083356369 14.478377,0.0791687284 L14.478377,0.0715638403 Z" id="Shape" fill="#0F91F2" fill-rule="nonzero"></path>
                <circle id="Oval" fill="#0F91F2" fill-rule="nonzero" cx="14.478377" cy="6.27333003" r="3.45809005"></circle>
                <path d="M59.5855517,25.3270262 C59.5899027,25.589287 59.4820576,25.8409254 59.289144,26.0186442 C59.1022449,26.2064713 58.8472785,26.3106512 58.5823256,26.3074518 C58.3128561,26.323613 58.0504422,26.2175308 57.867907,26.0186442 C57.6921763,25.8317802 57.596679,25.5834871 57.6019,25.3270262 L57.6019,10.5826423 C57.5941406,10.3168424 57.6990322,10.0601342 57.8907076,9.87582385 C58.082444,9.69238656 58.3399074,9.59378354 58.6051262,9.60221672 C58.8631134,9.59650906 59.1124856,9.69516179 59.2967442,9.87582385 C59.4884196,10.0601342 59.5933111,10.3168424 59.5855517,10.5826423 L59.5855517,25.3270262 Z" id="Path" fill="#FFFFFF" fill-rule="nonzero"></path>
                <path d="M111.722909,9.57941613 C111.976442,9.56975812 112.22127,9.67269727 112.391727,9.86062345 C112.56608,10.0483501 112.661354,10.2960635 112.657734,10.5522415 L112.657734,20.0296883 C112.699574,22.3246398 111.5033,24.4645757 109.526452,25.6310341 C108.541483,26.2019995 107.419502,26.4936621 106.281168,26.4746561 C105.133103,26.494602 104.00109,26.2030628 103.005482,25.6310341 C102.059259,25.0833405 101.273117,24.2971987 100.725423,23.3509748 C100.15733,22.3458097 99.8686652,21.2068963 99.8894013,20.0524889 L99.8894013,10.5522415 C99.8826083,10.2868494 99.9871717,10.0307215 100.177759,9.84590943 C100.368347,9.66109732 100.62757,9.56446238 100.892627,9.57941613 C101.146626,9.57895933 101.39023,9.68023303 101.569045,9.86062345 C101.760365,10.0394655 101.867891,10.2903604 101.865453,10.5522415 L101.865453,20.0296883 C101.853665,20.8495085 102.060939,21.6576143 102.465868,22.3705492 C102.848951,23.0422414 103.405418,23.5987082 104.07711,23.9817912 C104.747055,24.3684913 105.507636,24.5704389 106.281168,24.5670064 C107.079567,24.5769988 107.866333,24.3750622 108.561227,23.9817912 C109.241473,23.5942566 109.811707,23.0397178 110.21807,22.3705492 C110.642997,21.664558 110.861535,20.8535976 110.848887,20.0296883 L110.848887,10.5522415 C110.845254,10.3014206 110.928496,10.0570649 111.084493,9.86062345 C111.245534,9.67748855 111.479086,9.57461432 111.722909,9.57941613 Z" id="Path" fill="#FFFFFF" fill-rule="nonzero"></path>
                <path d="M128.671351,9.85302326 C128.50367,9.68277793 128.271656,9.59162982 128.032934,9.60221672 C127.795928,9.59373407 127.565963,9.68363471 127.397549,9.8506097 C127.229134,10.0175847 127.137263,10.246769 127.143711,10.4838397 L127.143711,22.8797625 L117.385057,9.95942603 C117.298925,9.84000004 117.176176,9.75194105 117.035448,9.7086195 C116.895331,9.65240026 116.745607,9.62400439 116.594636,9.62501732 C116.350991,9.62037159 116.115619,9.71342544 115.941019,9.88342405 C115.756499,10.0651521 115.657159,10.3162609 115.667412,10.5750421 L115.667412,25.4258288 C115.659388,25.6589921 115.744111,25.8858297 115.903018,26.0566452 C116.065467,26.2253224 116.292229,26.3165803 116.526235,26.3074518 C116.769236,26.31674 117.005439,26.2261038 117.179852,26.0566452 C117.346536,25.8897391 117.437234,25.6616215 117.430658,25.4258288 L117.430658,13.1211084 L127.174112,25.9958436 C127.26083,26.0995593 127.373644,26.1782667 127.50092,26.2238496 C127.638151,26.2808371 127.78555,26.3092824 127.934132,26.3074518 C128.199475,26.3118381 128.45492,26.2067824 128.640402,26.0169861 C128.825885,25.8271899 128.925041,25.5693983 128.914557,25.3042256 L128.914557,10.4838397 C128.920537,10.2496032 128.833026,10.0226217 128.671351,9.85302326 L128.671351,9.85302326 Z" id="Path" fill="#FFFFFF" fill-rule="nonzero"></path>
                <path d="M163.989471,9.60221672 C164.82263,9.58942743 165.642299,9.81345251 166.353132,10.2482335 C167.054108,10.6760705 167.62654,11.2852637 168.009975,12.0114795 C168.427765,12.7966725 168.637112,13.6759266 168.617991,14.565146 C168.631801,15.4537917 168.422766,16.3317385 168.009975,17.1188125 C167.627865,17.8600344 167.056187,18.4867819 166.353132,18.9352598 C165.645748,19.3803944 164.825213,19.6125714 163.989471,19.6040772 L159.148144,19.6040772 L159.307749,19.3152697 L159.307749,25.3270262 C159.315024,25.5824297 159.222308,25.8305837 159.049342,26.0186442 C158.872932,26.2035732 158.6285,26.3082122 158.372924,26.3082122 C158.117348,26.3082122 157.872916,26.2035732 157.696507,26.0186442 C157.531088,25.8270429 157.444213,25.5799922 157.4533,25.3270262 L157.4533,10.5522415 C157.449148,10.2990293 157.547906,10.0549669 157.726978,9.8758948 C157.906051,9.69682266 158.150113,9.59806486 158.403325,9.60221672 L163.989471,9.60221672 Z M163.989471,17.7648293 C164.485397,17.7747308 164.971025,17.6226384 165.372707,17.331618 C165.785405,17.0283639 166.114805,16.6257645 166.330332,16.1611875 C166.568913,15.6631525 166.691065,15.1173666 166.687541,14.565146 C166.698699,14.0121328 166.576157,13.4646023 166.330332,12.9691044 C166.106399,12.526662 165.777636,12.1457144 165.372707,11.8594755 C164.96771,11.576797 164.483238,11.4303905 163.989471,11.4414646 L159.148144,11.4414646 L159.307749,11.1754577 L159.307749,18.0156358 L159.148144,17.7800297 L163.989471,17.7648293 Z" id="Shape" fill="#0F91F2" fill-rule="nonzero"></path>
                <path d="M174.667749,12.0798812 L169.058803,25.7602375 C169.002694,25.9439594 168.884482,26.1024717 168.724394,26.2086492 C168.579427,26.3166961 168.403583,26.3753109 168.222781,26.3758535 C167.97644,26.3963205 167.733086,26.3105936 167.553963,26.1402474 C167.415225,25.9829489 167.339445,25.7799663 167.341158,25.5702326 C167.327523,25.449229 167.343162,25.3267206 167.386759,25.2130233 L173.57332,10.1722316 C173.699452,9.77383996 174.08402,9.51535977 174.500544,9.54901534 C174.700168,9.54968449 174.895392,9.60772399 175.062959,9.71621969 C175.225967,9.82617857 175.3487,9.9862652 175.412568,10.1722316 L181.568728,25.0686195 C181.614028,25.1901915 181.637194,25.3188921 181.63713,25.4486294 C181.651284,25.705159 181.547768,25.9541573 181.355923,26.125047 C181.178671,26.2851138 180.948731,26.3743846 180.709906,26.3758535 C180.521737,26.3775133 180.337973,26.318922 180.185492,26.2086492 C180.018955,26.0939668 179.893718,25.9287615 179.828283,25.7374369 L174.143335,12.0570807 L174.667749,12.0798812 Z M170.244433,21.8461356 L171.057655,19.9840871 L178.148639,19.9840871 L178.505849,21.8461356 L170.244433,21.8461356 Z" id="Shape" fill="#0F91F2" fill-rule="nonzero"></path>
                <path d="M195.925502,10.7194458 C196.179109,10.8428053 196.35343,11.0857115 196.389114,11.3654626 C196.418989,11.6392093 196.336735,11.9133862 196.161108,12.1254824 C196.041793,12.3171578 195.838893,12.4411521 195.613894,12.4598911 C195.382206,12.4705539 195.151727,12.4207913 194.945077,12.3154874 C194.415089,11.9904572 193.845458,11.7350174 193.250233,11.5554676 C191.773169,11.1281672 190.196075,11.2030123 188.766116,11.7682731 C188.001764,12.0814011 187.31076,12.5498344 186.736863,13.143909 C186.147795,13.7553986 185.69228,14.48267 185.399228,15.2795646 C185.071186,16.1407566 184.908736,17.0561541 184.920416,17.9776348 C184.904603,18.9410488 185.074923,19.8984566 185.422029,20.7973083 C185.734906,21.5774092 186.202904,22.2858691 186.797665,22.8797625 C187.372289,23.461775 188.063964,23.9151198 188.826917,24.2097971 C190.841688,24.9980385 193.110595,24.7866497 194.945077,23.6397823 C195.151727,23.5361422 195.384579,23.4964515 195.613894,23.5257793 C195.83954,23.5606253 196.0434,23.6802229 196.183909,23.860188 C196.360053,24.0717582 196.439938,24.3472252 196.404315,24.6202078 C196.362193,24.885812 196.191489,25.1134176 195.948303,25.2282237 C195.507637,25.4975099 195.044895,25.7288808 194.565067,25.9198417 C194.050603,26.1236931 193.519028,26.2813851 192.976625,26.3910539 C192.430733,26.4972121 191.875901,26.5508214 191.319782,26.5508214 C190.210498,26.5573832 189.109765,26.3563125 188.074498,25.9578427 C187.070761,25.5686423 186.153838,24.9849108 185.376428,24.2401979 C184.578951,23.4739418 183.949957,22.5498643 183.529579,21.5269273 C183.059143,20.3983637 182.826296,19.1849706 182.845562,17.9624344 C182.83066,16.7931939 183.050328,15.6328321 183.491578,14.5499456 C183.903395,13.5380526 184.516162,12.6201948 185.292825,11.8518753 C186.893999,10.2651874 189.065814,9.38879296 191.319782,9.41981197 C192.139668,9.41631093 192.955921,9.52889757 193.744245,9.75422068 C194.514267,9.96854901 195.249038,10.2936914 195.925502,10.7194458 L195.925502,10.7194458 Z" id="Path" fill="#0F91F2" fill-rule="nonzero"></path>
                <path d="M200.759228,9.60221672 L209.256249,9.60221672 C209.511653,9.59494093 209.759807,9.68765781 209.947867,9.86062345 C210.139493,10.0290227 210.245489,10.2744882 210.236675,10.5294409 C210.247634,10.7826111 210.141042,11.0266497 209.947867,11.1906581 C209.757405,11.3588238 209.510231,11.4484585 209.256249,11.4414646 L201.572449,11.4414646 L201.785255,11.0310539 L201.785255,17.1112123 L201.549649,16.8452053 L208.184621,16.8452053 C208.441082,16.8399843 208.689375,16.9354816 208.876239,17.1112123 C209.066112,17.2808809 209.171735,17.5254828 209.165047,17.7800297 C209.17143,18.0301413 209.065462,18.2699654 208.876239,18.4336467 C208.685778,18.6018187 208.438603,18.6914472 208.184621,18.6844532 L201.61805,18.6844532 L201.785255,18.4716477 L201.785255,24.6506086 L201.648451,24.4834043 L209.248649,24.4834043 C209.509202,24.4799191 209.759569,24.584468 209.940267,24.7722118 C210.124094,24.9366312 210.229138,25.1715994 210.229075,25.4182286 C210.237889,25.6731813 210.131893,25.9186468 209.940267,26.087046 C209.752207,26.2600117 209.504053,26.3527285 209.248649,26.3454527 L200.759228,26.3454527 C200.502448,26.3523218 200.255443,26.2468586 200.08281,26.0566452 C199.902148,25.8723866 199.803496,25.6230145 199.809203,25.3650272 L199.809203,10.5522415 C199.805052,10.2990293 199.903809,10.0549669 200.082881,9.8758948 C200.261954,9.69682266 200.506016,9.59806486 200.759228,9.60221672 Z" id="Path" fill="#0F91F2" fill-rule="nonzero"></path>
                <path d="M76.9368036,26.2694508 C76.6917127,26.2776938 76.4537807,26.1860581 76.2775351,26.0155442 C76.1012896,25.8450302 76.0018406,25.6102566 76.0019792,25.3650272 L76.0019792,12.3838892 L72.2018803,17.8484315 C71.7034132,18.5698528 70.8797981,18.9973221 70.0029514,18.9897106 C69.1261047,18.9820991 68.3100345,18.5403964 67.8241663,17.8104305 L64.0240673,12.148283 L64.0240673,25.3650272 C64.0240673,25.6881467 63.8516852,25.9867213 63.5718555,26.1482811 C63.2920259,26.3098408 62.9472616,26.3098408 62.6674319,26.1482811 C62.3876023,25.9867213 62.2152202,25.6881467 62.2152202,25.3650272 L62.2152202,11.0766551 C62.2593706,10.4469264 62.6881486,9.91002812 63.2925204,9.72770365 C63.8968923,9.54537918 64.5510524,9.75558106 64.936091,10.2558337 L69.3974072,16.7996042 C69.5474539,17.0327596 69.804193,17.1753924 70.081425,17.1796141 C70.3574586,17.1691954 70.6141886,17.0352493 70.7806432,16.8148046 L75.1279565,10.4914399 C75.5186811,10.0007184 76.1707154,9.80040697 76.7695559,9.98712411 C77.3683965,10.1738413 77.7910396,10.7092347 77.8336592,11.3350619 L77.8336592,25.3650272 C77.8356538,25.6041937 77.7420629,25.8342616 77.5736557,26.0040959 C77.4052485,26.1739303 77.1759786,26.2694594 76.9368036,26.2694508 Z" id="Path" fill="#FFFFFF" fill-rule="nonzero"></path>
                <path d="M95.7092924,26.2694508 C95.2097931,26.2694508 94.8048689,25.8645265 94.8048689,25.3650272 L94.8048689,12.3838892 L91.0503711,17.8484315 C90.5571752,18.5783219 89.7270017,19.007722 88.8463137,18.9884612 C87.9597109,18.9936756 87.1305234,18.5504892 86.6422563,17.8104305 L82.8421573,12.148283 L82.8421573,25.3650272 C82.8421573,25.8645265 82.4372331,26.2694508 81.9377338,26.2694508 C81.4382345,26.2694508 81.0333102,25.8645265 81.0333102,25.3650272 L81.0333102,11.0766551 C81.0351123,10.4249589 81.4624231,9.85091215 82.0862028,9.6622057 C82.7099824,9.47349925 83.383838,9.71442003 83.7465809,10.2558337 L88.1622959,16.7996042 C88.3166481,17.0319406 88.575037,17.1739125 88.8539139,17.1796141 C89.1314164,17.1748502 89.3904752,17.0396891 89.5531321,16.8148046 L93.9004453,10.4914399 C94.29117,10.0007184 94.9432042,9.80040697 95.5420448,9.98712411 C96.1408854,10.1738413 96.5635285,10.7092347 96.6061158,11.3350619 L96.6061158,25.3650272 C96.6061158,25.8615735 96.2058212,26.2652781 95.7092924,26.2694508 Z" id="Path" fill="#FFFFFF" fill-rule="nonzero"></path>
                <path d="M142.769718,23.7385849 C142.765435,23.7662877 142.765435,23.7944842 142.769718,23.822187 C142.819259,23.9025423 142.875174,23.9787894 142.936922,24.050193 C142.875174,23.9787894 142.819259,23.9025423 142.769718,23.822187 C142.765435,23.7944842 142.765435,23.7662877 142.769718,23.7385849 L142.769718,23.7385849 Z" id="Path"></path>
                <path d="M154.664028,20.2728946 C154.610826,20.1208906 154.557625,19.9764869 154.496823,19.8396833 C154.250969,19.3022089 153.877951,18.8326752 153.409995,18.4716477 C153.071701,18.2266588 152.710234,18.0153789 152.330767,17.8408313 C152.140762,17.7496289 151.950757,17.6584265 151.745552,17.5748243 C151.418743,17.4532212 151.084334,17.3392182 150.734725,17.2328154 C150.385116,17.1264127 149.974706,17.0276101 149.632697,16.9364077 C148.982811,16.76487 148.345437,16.5490261 147.725047,16.2903909 L147.679446,16.2903909 C147.29632,16.1336714 146.939914,15.9182893 146.623018,15.6519743 C146.526749,15.5607719 146.435547,15.4695695 146.349411,15.3783671 C146.264432,15.2840855 146.188121,15.1823381 146.121405,15.0743592 C145.924505,14.7216634 145.824837,14.3229901 145.832598,13.9191291 C145.821257,13.4263412 145.982568,12.9450964 146.28861,12.5586937 C146.363553,12.4646129 146.44481,12.3757388 146.531816,12.2926868 L146.531816,12.2926868 L146.600218,12.2394854 C146.772533,12.0895648 146.961195,11.959541 147.162632,11.8518753 C147.284236,11.7910737 147.413439,11.7302721 147.550242,11.6770708 C148.131044,11.4717762 148.743087,11.3689118 149.35909,11.3730628 L149.442692,11.3730628 C149.697056,11.3701193 149.951238,11.387912 150.202712,11.4262642 C150.446739,11.4594322 150.688043,11.5102332 150.92473,11.5782682 C151.159639,11.6492906 151.390518,11.733016 151.616348,11.8290747 C151.833158,11.9191498 152.043875,12.0232392 152.247165,12.1406828 C152.303206,12.1716944 152.356589,12.207283 152.406769,12.2470856 C152.720272,12.4320933 153.004578,12.6626112 153.250391,12.9311034 C153.376804,13.0532636 153.54581,13.1214111 153.721603,13.1211084 C153.973686,13.1187756 154.213356,13.0113373 154.38282,12.8247006 C154.565472,12.6626307 154.670497,12.4304707 154.671628,12.186284 C154.665446,11.9946865 154.601903,11.8093539 154.489223,11.6542702 C154.40667,11.5361906 154.312461,11.4267045 154.208016,11.3274617 C153.79824,10.884713 153.308243,10.5236626 152.763978,10.2634339 C152.568378,10.1693572 152.367962,10.0856393 152.163563,10.0126274 C151.740016,9.85450778 151.302261,9.73743389 150.856329,9.66301831 C150.628323,9.62248392 150.400317,9.59208313 150.172311,9.57181593 C149.936705,9.57181593 149.708699,9.57181593 149.473093,9.57181593 L149.077882,9.57181593 C148.465287,9.59267001 147.857668,9.68968479 147.269035,9.86062345 C147.049172,9.92912431 146.83347,10.0103297 146.623018,10.1038298 C146.417813,10.1950322 146.227808,10.2938347 146.037803,10.4002375 C145.506622,10.7195652 145.04834,11.1467769 144.692568,11.6542702 C144.34245,12.1568107 144.115902,12.7349001 144.031351,13.3415141 C144.01955,13.5541561 144.01955,13.7672888 144.031351,13.9799307 C144.029426,14.3089437 144.059975,14.6373436 144.122553,14.9603563 C144.184441,15.3989449 144.351306,15.816108 144.608966,16.1763879 C144.810314,16.5291268 145.06691,16.8473055 145.368986,17.1188125 L145.368986,17.1188125 C145.434271,17.1712294 145.50281,17.2194604 145.574191,17.2632162 C145.988458,17.5727322 146.440519,17.8281338 146.919426,18.023236 C147.557809,18.2853771 148.216036,18.4963147 148.887877,18.6540524 C149.290688,18.7452548 149.647897,18.8516576 150.027907,18.9656606 C150.363618,19.0721932 150.693426,19.1965053 151.015933,19.3380703 C151.166573,19.4038863 151.313707,19.4774532 151.456744,19.558476 C151.715727,19.7006392 151.957919,19.8714481 152.178763,20.0676893 C152.28248,20.1562109 152.379049,20.2527799 152.467571,20.3564968 C152.729807,20.6697774 152.903051,21.0477638 152.969184,21.4509253 C152.992681,21.5968855 153.007905,21.7440575 153.014785,21.8917368 C153.022611,22.01575 153.022611,22.1401332 153.014785,22.2641465 C152.952426,22.6270798 152.79212,22.9660873 152.551173,23.244572 C152.387218,23.4435574 152.195205,23.6176493 151.981158,23.7613855 C151.742469,23.9195646 151.48771,24.0520391 151.221138,24.1565957 C150.628447,24.379017 149.999708,24.4898193 149.36669,24.4834043 C148.547019,24.4947688 147.734063,24.3342488 146.980228,24.012192 C146.801021,23.9352942 146.625975,23.8490399 146.455814,23.7537853 C145.9255,23.4585402 145.439385,23.0901163 145.011776,22.6593568 C144.92997,22.5834616 144.837859,22.5194954 144.738169,22.4693518 C144.639738,22.4273739 144.533553,22.4066547 144.426561,22.4085502 C144.173818,22.399857 143.930724,22.5060362 143.765344,22.6973577 C143.678199,22.787594 143.608612,22.8932631 143.560139,23.0089659 C143.514955,23.1199857 143.491737,23.2387129 143.491737,23.358575 C143.492693,23.4791053 143.518569,23.598135 143.567739,23.7081841 C143.563456,23.7358869 143.563456,23.7640834 143.567739,23.7917862 C143.61728,23.8721415 143.673195,23.9483886 143.734943,24.0197922 L143.833746,24.1565957 C144.396997,24.6808348 145.025375,25.1304057 145.703394,25.4942306 C145.9238,25.6006333 146.136606,25.6994359 146.357011,25.7830381 C146.577661,25.8726625 146.803549,25.9488046 147.033429,26.011044 C147.800208,26.2098269 148.589795,26.3069283 149.38189,26.2998516 C149.892646,26.2978613 150.4019,26.2443896 150.90193,26.1402474 C151.196507,26.0747957 151.486048,25.9884416 151.768352,25.8818407 C151.925772,25.8315237 152.080512,25.7731791 152.231964,25.7070361 C152.643631,25.5148494 153.031353,25.275074 153.387194,24.9926175 C153.616866,24.794626 153.830351,24.5785996 154.025611,24.3466007 C154.078812,24.2705987 154.147214,24.2097971 154.200416,24.1337952 C154.253617,24.0577932 154.276418,23.9969916 154.322019,23.93619 C154.721477,23.3128659 154.930162,22.586433 154.922434,21.8461356 C154.914672,21.3118199 154.827586,20.7816206 154.664028,20.2728946 Z" id="Path" fill="#0F91F2" fill-rule="nonzero"></path>
                <path d="M141.523286,25.8590401 L141.462484,25.7982385 C141.188508,25.5333941 140.959983,25.2252696 140.786066,24.8862147 C140.711835,24.7442178 140.648323,24.59687 140.596061,24.4454033 L134.470302,24.4454033 L134.470302,18.6464523 L142.83052,18.6464523 C142.285341,18.1160941 141.842241,17.4900868 141.523286,16.7996042 L134.470302,16.7996042 L134.470302,11.4794656 L141.447284,11.4794656 C141.603958,11.0915322 141.802754,10.7219748 142.040099,10.3774369 C142.218101,10.1073689 142.418979,9.85309384 142.640515,9.61741712 L133.444275,9.61741712 C133.189758,9.61117261 132.943705,9.70900536 132.762964,9.88831132 C132.582224,10.0676173 132.482434,10.3128835 132.48665,10.5674419 L132.48665,25.3270262 C132.480943,25.5850135 132.579595,25.8343857 132.760257,26.0186442 C132.93524,26.2100527 133.185063,26.3155338 133.444275,26.3074518 L142.047699,26.3074518 C141.872895,26.163048 141.69809,26.0186442 141.523286,25.8590401 Z" id="Path" fill="#FFFFFF" fill-rule="nonzero"></path>
            </g>
        </g>
    </g>
</svg>