<?xml version="1.0" encoding="UTF-8"?>
<svg width="322px" height="393px" viewBox="0 0 322 393" version="1.1" xmlns="http://www.w3.org/2000/svg" xmlns:xlink="http://www.w3.org/1999/xlink">
    <title>Group 11</title>
    <defs>
        <rect id="path-1" x="0.306122449" y="0.5" width="320" height="391"></rect>
        <polygon id="path-3" points="0.394010171 0.0187880711 26.7113248 0.0187880711 26.7113248 58.9193909 0.394010171 58.9193909"></polygon>
        <polygon id="path-5" points="0.394010171 0.0187880711 26.7113248 0.0187880711 26.7113248 58.9193909 0.394010171 58.9193909"></polygon>
    </defs>
    <g id="Landing-Page" stroke="none" stroke-width="1" fill="none" fill-rule="evenodd">
        <g id="Mobile" transform="translate(1.000000, -82.000000)">
            <g id="Group-4" transform="translate(-494.000000, 79.000000)">
                <g id="Group-11" transform="translate(493.693878, 3.500000)">
                    <mask id="mask-2" fill="white">
                        <use xlink:href="#path-1"></use>
                    </mask>
                    <g id="Rectangle"></g>
                    <g id="Group-10-Copy-3" mask="url(#mask-2)" opacity="0.5">
                        <g transform="translate(338.000000, -12.000000) rotate(-270.000000) translate(-338.000000, 12.000000) translate(163.000000, -130.000000)" id="Group-204">
                            <g transform="translate(0.000000, 0.193878)">
                                <path d="M193.336628,129.058266 C186.127406,129.058266 180.282727,134.893991 180.282727,142.09328 C180.282727,149.292568 186.127406,155.129195 193.336628,155.129195 C200.545849,155.129195 206.390529,149.292568 206.390529,142.09328 C206.390529,134.893991 200.545849,129.058266 193.336628,129.058266 M193.336628,131.327264 C199.281548,131.327264 204.117497,136.15655 204.117497,142.09328 C204.117497,148.030009 199.281548,152.860197 193.336628,152.860197 C187.391707,152.860197 182.555758,148.030009 182.555758,142.09328 C182.555758,136.15655 187.391707,131.327264 193.336628,131.327264" id="Fill-42" fill="#0F91F2"></path>
                                <path d="M186.05209,142.093821 C186.05209,138.07618 189.313082,134.818779 193.336266,134.818779 C197.359451,134.818779 200.621346,138.07618 200.621346,142.093821 C200.621346,146.111462 197.359451,149.367961 193.336266,149.367961 C189.313082,149.367961 186.05209,146.111462 186.05209,142.093821" id="Fill-56" fill="#0F91F2"></path>
                                <path d="M254.470787,191.670069 C247.261566,191.670069 241.416886,197.506696 241.416886,204.705984 C241.416886,211.904371 247.261566,217.740998 254.470787,217.740998 C261.680008,217.740998 267.524688,211.904371 267.524688,204.705984 C267.524688,197.506696 261.680008,191.670069 254.470787,191.670069 M254.470787,193.939067 C260.415708,193.939067 265.251657,198.769255 265.251657,204.705984 C265.251657,210.642714 260.415708,215.472 254.470787,215.472 C248.525866,215.472 243.689917,210.642714 243.689917,204.705984 C243.689917,198.769255 248.525866,193.939067 254.470787,193.939067" id="Fill-82" fill="#0F91F2"></path>
                                <path d="M207.784058,191.565277 C204.570026,191.565277 201.627819,192.71691 199.342145,194.627883 L199.342145,194.608944 C197.146777,196.27011 194.414082,199.87742 191.451104,199.87742 C188.489029,199.87742 185.756334,196.27011 183.560967,194.609846 L183.560967,194.627883 C181.276196,192.71691 178.333085,191.565277 175.119053,191.565277 C167.852035,191.565277 161.960396,197.447897 161.960396,204.705804 C161.960396,211.962809 167.852035,217.846331 175.119053,217.846331 C178.333085,217.846331 181.276196,216.694698 183.560967,214.783725 L183.560967,214.793645 C185.756334,213.133381 188.489932,209.763252 191.452007,209.763252 C194.414082,209.763252 197.146777,213.133381 199.342145,214.792744 L199.342145,214.783725 C201.627819,216.694698 204.570026,217.846331 207.784058,217.846331 C215.051076,217.846331 220.942716,211.962809 220.942716,204.705804 C220.942716,197.447897 215.051076,191.565277 207.784058,191.565277 M207.784058,193.834275 C213.786776,193.834275 218.670588,198.711357 218.670588,204.705804 C218.670588,210.700251 213.786776,215.576432 207.784058,215.576432 C205.234687,215.576432 202.754852,214.67731 200.801508,213.0441 L199.464962,211.930343 C199.338532,211.816713 199.209393,211.702181 199.080254,211.584944 C197.052858,209.76235 194.529676,207.495156 191.452007,207.495156 C188.374339,207.495156 185.850254,209.763252 183.822858,211.584944 C183.716295,211.681439 183.610636,211.776131 183.506783,211.869019 L182.102506,213.0441 C180.148259,214.67731 177.668424,215.576432 175.119053,215.576432 C169.116336,215.576432 164.232524,210.700251 164.232524,204.705804 C164.232524,198.711357 169.116336,193.834275 175.119053,193.834275 C177.668424,193.834275 180.148259,194.733397 182.102506,196.367508 L183.205157,197.284666 C183.439052,197.497498 183.680172,197.724758 183.927614,197.955626 C185.921596,199.82331 188.403237,202.146418 191.451104,202.146418 C194.500777,202.146418 196.982418,199.822409 198.9764,197.954724 C199.197653,197.747304 199.41439,197.544393 199.624806,197.351402 L200.801508,196.367508 C202.754852,194.733397 205.234687,193.834275 207.784058,193.834275" id="Fill-84" fill="#0F91F2"></path>
                                <path d="M200.69621,204.705624 C200.69621,200.687983 203.958105,197.431484 207.981289,197.431484 C212.004474,197.431484 215.265465,200.687983 215.265465,204.705624 C215.265465,208.723265 212.004474,211.979764 207.981289,211.979764 C203.958105,211.979764 200.69621,208.723265 200.69621,204.705624" id="Fill-88" fill="#0F91F2"></path>
                                <g id="Group-92" transform="translate(217.640273, 175.236489)">
                                    <mask id="mask-4" fill="white">
                                        <use xlink:href="#path-3"></use>
                                    </mask>
                                    <g id="Clip-91"></g>
                                    <path d="M13.5526675,0.0187880711 C6.28564976,0.0187880711 0.394010171,5.9023101 0.394010171,13.1593153 C0.394010171,16.3680172 1.54813577,19.3079746 3.46084157,21.5886961 L3.45000471,21.5886961 C5.11346273,23.7819404 8.48824157,26.5108701 8.48824157,29.4697658 C8.48824157,32.4277597 5.11346273,35.1566895 3.45090778,37.3490319 L3.46084157,37.3490319 C1.54813577,39.6306553 0.394010171,42.5697108 0.394010171,45.7784127 C0.394010171,53.0363197 6.28564976,58.9198418 13.5526675,58.9198418 C20.8196853,58.9198418 26.7113248,53.0363197 26.7113248,45.7784127 C26.7113248,42.5697108 25.5581023,39.6306553 23.6444934,37.3490319 L23.6625549,37.3490319 C21.9999999,35.1566895 18.3877132,32.4268579 18.3877132,29.468864 C18.3877132,26.5099683 21.9999999,23.7819404 23.6625549,21.5886961 L23.6444934,21.5886961 C25.5581023,19.3079746 26.7113248,16.3680172 26.7113248,13.1593153 C26.7113248,5.9023101 20.8196853,0.0187880711 13.5526675,0.0187880711 M13.5526675,2.28778584 C19.5553849,2.28778584 24.4391965,7.16486848 24.4391965,13.1593153 C24.4391965,15.7051741 23.5388341,18.1815921 21.9024682,20.1322448 L20.9840443,21.2342779 C20.7700163,21.4678512 20.5433453,21.7086391 20.312159,21.9557398 C18.4428006,23.9469748 16.1155849,26.4242947 16.1155849,29.468864 C16.1155849,32.5134334 18.4428006,34.9916551 20.313062,36.98289 C20.5207685,37.2047395 20.7257658,37.4220799 20.9199262,37.6331076 L21.9024682,38.8054832 C23.5388341,40.7561359 24.4391965,43.232554 24.4391965,45.7784127 C24.4391965,51.7737614 19.5553849,56.6499422 13.5526675,56.6499422 C7.5499501,56.6499422 2.6661385,51.7737614 2.6661385,45.7784127 C2.6661385,43.232554 3.56740403,40.7561359 5.20286683,38.8054832 L6.31545113,37.4743859 C6.42923816,37.3472283 6.5457344,37.218267 6.66403679,37.087502 C8.48914464,35.0628994 10.7603699,32.5422918 10.7603699,29.4697658 C10.7603699,26.396338 8.48824157,23.8757304 6.66313372,21.850226 C6.56740812,21.7438104 6.4725856,21.6391984 6.37956922,21.5354883 L5.20286683,20.1322448 C3.56740403,18.1815921 2.6661385,15.7051741 2.6661385,13.1593153 C2.6661385,7.16486848 7.5499501,2.28778584 13.5526675,2.28778584" id="Fill-90" fill="#FFFFFF" mask="url(#mask-4)"></path>
                                </g>
                                <path d="M231.192941,181.2031 C235.216125,181.2031 238.47802,184.459598 238.47802,188.477239 C238.47802,192.494881 235.216125,195.752281 231.192941,195.752281 C227.169756,195.752281 223.908764,192.494881 223.908764,188.477239 C223.908764,184.459598 227.169756,181.2031 231.192941,181.2031" id="Fill-93" fill="#FFFFFF"></path>
                                <path d="M231.192941,213.767005 C235.216125,213.767005 238.47802,217.023504 238.47802,221.041145 C238.47802,225.058786 235.216125,228.316187 231.192941,228.316187 C227.169756,228.316187 223.908764,225.058786 223.908764,221.041145 C223.908764,217.023504 227.169756,213.767005 231.192941,213.767005" id="Fill-95" fill="#0F91F2"></path>
                                <path d="M247.185798,204.705624 C247.185798,200.687983 250.447693,197.431484 254.470877,197.431484 C258.494062,197.431484 261.755053,200.687983 261.755053,204.705624 C261.755053,208.723265 258.494062,211.979764 254.470877,211.979764 C250.447693,211.979764 247.185798,208.723265 247.185798,204.705624" id="Fill-97" fill="#0F91F2"></path>
                                <path d="M191.57329,168.295244 C184.364069,168.295244 178.519389,174.131871 178.519389,181.331159 C178.519389,188.530447 184.364069,194.366172 191.57329,194.366172 C198.782511,194.366172 204.627191,188.530447 204.627191,181.331159 C204.627191,174.131871 198.782511,168.295244 191.57329,168.295244 M191.57329,170.564242 C197.518211,170.564242 202.354159,175.394429 202.354159,181.331159 C202.354159,187.267889 197.518211,192.098076 191.57329,192.098076 C185.628369,192.098076 180.79242,187.267889 180.79242,181.331159 C180.79242,175.394429 185.628369,170.564242 191.57329,170.564242" id="Fill-99" fill="#0F91F2"></path>
                                <path d="M184.288752,181.331249 C184.288752,177.313608 187.549744,174.056207 191.572929,174.056207 C195.596113,174.056207 198.858008,177.313608 198.858008,181.331249 C198.858008,185.34889 195.596113,188.605389 191.572929,188.605389 C187.549744,188.605389 184.288752,185.34889 184.288752,181.331249" id="Fill-101" fill="#0F91F2"></path>
                                <path d="M312.143924,89.6622965 C304.876906,89.6622965 298.985267,95.5458185 298.985267,102.802824 C298.985267,106.011526 300.138489,108.951483 302.052098,111.232205 L302.041261,111.232205 C303.703816,113.425449 307.078595,116.154379 307.078595,119.113274 C307.078595,122.071268 303.704719,124.800198 302.042164,126.99254 L302.052098,126.99254 C300.138489,129.274164 298.985267,132.213219 298.985267,135.421921 C298.985267,142.679828 304.876906,148.56335 312.143924,148.56335 C319.410942,148.56335 325.302581,142.679828 325.302581,135.421921 C325.302581,132.213219 324.149359,129.274164 322.23575,126.99254 L322.253811,126.99254 C320.591256,124.800198 316.97897,122.070366 316.97897,119.112372 C316.97897,116.153477 320.591256,113.425449 322.252908,111.232205 L322.23575,111.232205 C324.148456,108.951483 325.302581,106.011526 325.302581,102.802824 C325.302581,95.5458185 319.410942,89.6622965 312.143924,89.6622965 M312.143924,91.9312943 C318.146641,91.9312943 323.030453,96.8083769 323.030453,102.802824 C323.030453,105.348683 322.129188,107.825101 320.493725,109.775753 L319.574398,110.877786 C319.361273,111.11136 319.134602,111.352148 318.902512,111.599248 C317.033154,113.590483 314.705938,116.067803 314.705938,119.112372 C314.705938,122.156942 317.034057,124.635164 318.903415,126.626398 C319.112025,126.848248 319.316119,127.065588 319.51028,127.276616 L320.493725,128.448992 C322.129188,130.399644 323.030453,132.876062 323.030453,135.421921 C323.030453,141.41727 318.146641,146.293451 312.143924,146.293451 C306.141207,146.293451 301.257395,141.41727 301.257395,135.421921 C301.257395,132.876062 302.157757,130.399644 303.794123,128.448992 L304.906708,127.117894 C305.020495,126.990737 305.136991,126.861775 305.255293,126.73101 C307.079498,124.706408 309.350723,122.1858 309.350723,119.113274 C309.350723,116.039846 307.079498,113.519239 305.25439,111.493734 C305.158665,111.388221 305.063842,111.282707 304.970826,111.178997 L303.794123,109.775753 C302.157757,107.825101 301.257395,105.348683 301.257395,102.802824 C301.257395,96.8083769 306.141207,91.9312943 312.143924,91.9312943" id="Fill-172" fill="#FFFFFF"></path>
                                <path d="M312.143924,128.174024 C316.167108,128.174024 319.4281,131.430523 319.4281,135.448164 C319.4281,139.465805 316.167108,142.723206 312.143924,142.723206 C308.12074,142.723206 304.858845,139.465805 304.858845,135.448164 C304.858845,131.430523 308.12074,128.174024 312.143924,128.174024" id="Fill-176" fill="#0F91F2"></path>
                                <path d="M294.931378,148.372704 C287.722157,148.372704 281.877477,154.209331 281.877477,161.408619 C281.877477,168.607006 287.722157,174.443633 294.931378,174.443633 C302.140599,174.443633 307.985279,168.607006 307.985279,161.408619 C307.985279,154.209331 302.140599,148.372704 294.931378,148.372704 M294.931378,150.641702 C300.876299,150.641702 305.712248,155.471889 305.712248,161.408619 C305.712248,167.345349 300.876299,172.174635 294.931378,172.174635 C288.986457,172.174635 284.150508,167.345349 284.150508,161.408619 C284.150508,155.471889 288.986457,150.641702 294.931378,150.641702" id="Fill-184" fill="#0F91F2"></path>
                                <path d="M248.244559,148.267912 C245.030527,148.267912 242.08832,149.419545 239.802645,151.330517 L239.802645,151.311579 C237.607278,152.972745 234.874583,156.580055 231.911605,156.580055 C228.94953,156.580055 226.216835,152.972745 224.021468,151.312481 L224.021468,151.330517 C221.736696,149.419545 218.793586,148.267912 215.580457,148.267912 C208.312536,148.267912 202.420896,154.150532 202.420896,161.408439 C202.420896,168.665444 208.312536,174.548966 215.580457,174.548966 C218.793586,174.548966 221.736696,173.397332 224.021468,171.48636 L224.021468,171.49628 C226.216835,169.836918 228.950433,166.466789 231.912508,166.466789 C234.874583,166.466789 237.607278,169.836016 239.802645,171.49628 L239.802645,171.48636 C242.08832,173.397332 245.030527,174.548966 248.244559,174.548966 C255.511577,174.548966 261.403217,168.665444 261.403217,161.408439 C261.403217,154.150532 255.511577,148.267912 248.244559,148.267912 M248.244559,150.536909 C254.247277,150.536909 259.131088,155.413992 259.131088,161.408439 C259.131088,167.402886 254.247277,172.279968 248.244559,172.279968 C245.695188,172.279968 243.215353,171.379944 241.262009,169.746735 L239.925463,168.632978 C239.799033,168.519348 239.669894,168.404816 239.540754,168.287578 C237.513359,166.464985 234.990176,164.197791 231.912508,164.197791 C228.83484,164.197791 226.310754,166.465887 224.283359,168.28848 C224.176796,168.384074 224.071137,168.478766 223.967283,168.571654 L222.563007,169.746735 C220.60876,171.379944 218.129828,172.279968 215.580457,172.279968 C209.576836,172.279968 204.693025,167.402886 204.693025,161.408439 C204.693025,155.413992 209.576836,150.536909 215.580457,150.536909 C218.129828,150.536909 220.60876,151.436933 222.563007,153.070143 L223.665658,153.987301 C223.899553,154.200132 224.141576,154.427393 224.388115,154.658261 C226.382097,156.525945 228.863738,158.849053 231.911605,158.849053 C234.961278,158.849053 237.442919,156.525043 239.436901,154.657359 C239.658154,154.449938 239.874891,154.247027 240.085307,154.054036 L241.262009,153.070143 C243.215353,151.436933 245.695188,150.536909 248.244559,150.536909" id="Fill-186" fill="#0F91F2"></path>
                                <path d="M208.377106,161.408258 C208.377106,157.390617 211.638097,154.134119 215.661282,154.134119 C219.684466,154.134119 222.946361,157.390617 222.946361,161.408258 C222.946361,165.4259 219.684466,168.6833 215.661282,168.6833 C211.638097,168.6833 208.377106,165.4259 208.377106,161.408258" id="Fill-188" fill="#FFFFFF"></path>
                                <path d="M241.156711,161.408258 C241.156711,157.390617 244.418606,154.134119 248.44179,154.134119 C252.464974,154.134119 255.725966,157.390617 255.725966,161.408258 C255.725966,165.4259 252.464974,168.6833 248.44179,168.6833 C244.418606,168.6833 241.156711,165.4259 241.156711,161.408258" id="Fill-190" fill="#0F91F2"></path>
                                <path d="M271.653441,131.957912 C264.386424,131.957912 258.494784,137.841434 258.494784,145.098439 C258.494784,148.307141 259.64891,151.247098 261.561615,153.52782 L261.550778,153.52782 C263.214237,155.721064 266.589015,158.449994 266.589015,161.40889 C266.589015,164.366884 263.214237,167.095813 261.551682,169.288156 L261.561615,169.288156 C259.64891,171.569779 258.494784,174.509736 258.494784,177.718438 C258.494784,184.975444 264.386424,190.858966 271.653441,190.858966 C278.920459,190.858966 284.812099,184.975444 284.812099,177.718438 C284.812099,174.509736 283.658876,171.569779 281.745267,169.288156 L281.763329,169.288156 C280.100774,167.095813 276.488487,164.366884 276.488487,161.407988 C276.488487,158.449994 280.100774,155.721064 281.763329,153.52782 L281.745267,153.52782 C283.658876,151.247098 284.812099,148.307141 284.812099,145.098439 C284.812099,137.841434 278.920459,131.957912 271.653441,131.957912 M271.653441,134.22691 C277.656159,134.22691 282.53997,139.103992 282.53997,145.098439 C282.53997,147.6452 281.639608,150.121618 280.003242,152.07227 L279.084818,153.173402 C278.871693,153.406975 278.644119,153.647763 278.412933,153.894864 C276.543574,155.886099 274.216359,158.363419 274.216359,161.407988 C274.216359,164.452557 276.543574,166.930779 278.413836,168.922014 C278.622445,169.143863 278.82654,169.362106 279.0207,169.572231 L280.004145,170.744607 C281.639608,172.69526 282.53997,175.171678 282.53997,177.718438 C282.53997,183.712885 277.656159,188.589066 271.653441,188.589066 C265.650724,188.589066 260.766912,183.712885 260.766912,177.718438 C260.766912,175.171678 261.668178,172.69526 263.303641,170.744607 L264.416225,169.41351 C264.530012,169.286352 264.646508,169.157391 264.764811,169.026626 C266.589918,167.002023 268.861144,164.482318 268.861144,161.40889 C268.861144,158.335462 266.589015,155.814854 264.763908,153.78935 C264.668182,153.683836 264.573359,153.578322 264.480343,153.474612 L263.303641,152.07227 C261.668178,150.121618 260.766912,147.6452 260.766912,145.098439 C260.766912,139.103992 265.650724,134.22691 271.653441,134.22691" id="Fill-192" fill="#FFFFFF"></path>
                                <path d="M271.653441,137.905644 C275.676626,137.905644 278.93852,141.162143 278.93852,145.179784 C278.93852,149.197425 275.676626,152.454826 271.653441,152.454826 C267.630257,152.454826 264.369265,149.197425 264.369265,145.179784 C264.369265,141.162143 267.630257,137.905644 271.653441,137.905644" id="Fill-194" fill="#FFFFFF"></path>
                                <path d="M271.653441,170.46964 C275.676626,170.46964 278.93852,173.726139 278.93852,177.74378 C278.93852,181.761421 275.676626,185.018821 271.653441,185.018821 C267.630257,185.018821 264.369265,181.761421 264.369265,177.74378 C264.369265,173.726139 267.630257,170.46964 271.653441,170.46964" id="Fill-196" fill="#0F91F2"></path>
                                <path d="M287.64675,161.408258 C287.64675,157.390617 290.907742,154.134119 294.930926,154.134119 C298.954111,154.134119 302.216006,157.390617 302.216006,161.408258 C302.216006,165.4259 298.954111,168.6833 294.930926,168.6833 C290.907742,168.6833 287.64675,165.4259 287.64675,161.408258" id="Fill-198" fill="#0F91F2"></path>
                                <path d="M232.033791,124.998239 C224.824569,124.998239 218.97989,130.834866 218.97989,138.034154 C218.97989,145.232541 224.824569,151.069168 232.033791,151.069168 C239.243012,151.069168 245.087692,145.232541 245.087692,138.034154 C245.087692,130.834866 239.243012,124.998239 232.033791,124.998239 M232.033791,127.267237 C237.978711,127.267237 242.81466,132.097425 242.81466,138.034154 C242.81466,143.970884 237.978711,148.80017 232.033791,148.80017 C226.08887,148.80017 221.252921,143.970884 221.252921,138.034154 C221.252921,132.097425 226.08887,127.267237 232.033791,127.267237" id="Fill-200" fill="#0F91F2"></path>
                                <path d="M224.749253,138.033794 C224.749253,134.016153 228.010245,130.759654 232.033429,130.759654 C236.056614,130.759654 239.318509,134.016153 239.318509,138.033794 C239.318509,142.051435 236.056614,145.307934 232.033429,145.307934 C228.010245,145.307934 224.749253,142.051435 224.749253,138.033794" id="Fill-202" fill="#0F91F2"></path>
                            </g>
                        </g>
                    </g>
                    <g id="Group-10-Copy-2" mask="url(#mask-2)" opacity="0.5">
                        <g transform="translate(341.000000, 231.000000) rotate(-270.000000) translate(-341.000000, -231.000000) translate(166.000000, 113.000000)" id="Group-204">
                            <g transform="translate(0.000000, 0.193878)">
                                <path d="M193.336628,129.058266 C186.127406,129.058266 180.282727,134.893991 180.282727,142.09328 C180.282727,149.292568 186.127406,155.129195 193.336628,155.129195 C200.545849,155.129195 206.390529,149.292568 206.390529,142.09328 C206.390529,134.893991 200.545849,129.058266 193.336628,129.058266 M193.336628,131.327264 C199.281548,131.327264 204.117497,136.15655 204.117497,142.09328 C204.117497,148.030009 199.281548,152.860197 193.336628,152.860197 C187.391707,152.860197 182.555758,148.030009 182.555758,142.09328 C182.555758,136.15655 187.391707,131.327264 193.336628,131.327264" id="Fill-42" fill="#0F91F2"></path>
                                <path d="M146.649899,128.953023 C143.435867,128.953023 140.49366,130.104657 138.207985,132.015629 L138.207985,131.997592 C136.012618,133.657857 133.279923,137.265166 130.316945,137.265166 C127.35487,137.265166 124.622175,133.657857 122.426808,131.997592 L122.426808,132.015629 C120.142036,130.104657 117.198926,128.953023 113.984894,128.953023 C106.717876,128.953023 100.826236,134.836545 100.826236,142.09355 C100.826236,149.350555 106.717876,155.234077 113.984894,155.234077 C117.198926,155.234077 120.142036,154.082444 122.426808,152.171472 L122.426808,152.181392 C124.622175,150.522029 127.355773,147.1519 130.317848,147.1519 C133.279923,147.1519 136.012618,150.521127 138.207985,152.181392 L138.207985,152.171472 C140.49366,154.082444 143.435867,155.234077 146.649899,155.234077 C153.916917,155.234077 159.808557,149.350555 159.808557,142.09355 C159.808557,134.836545 153.916917,128.953023 146.649899,128.953023 M146.649899,131.222021 C152.652617,131.222021 157.536428,136.099103 157.536428,142.09355 C157.536428,148.087997 152.652617,152.96508 146.649899,152.96508 C144.100528,152.96508 141.620693,152.065056 139.667349,150.431846 L138.330803,149.31809 C138.204373,149.205361 138.075234,149.089927 137.946094,148.97269 C135.918698,147.150998 133.395516,144.882902 130.317848,144.882902 C127.24018,144.882902 124.716094,147.150998 122.688698,148.973592 C122.582136,149.069185 122.476477,149.163877 122.372623,149.257667 L120.968347,150.431846 C119.0141,152.065056 116.534265,152.96508 113.984894,152.96508 C107.982176,152.96508 103.098365,148.087997 103.098365,142.09355 C103.098365,136.099103 107.982176,131.222021 113.984894,131.222021 C116.534265,131.222021 119.0141,132.122045 120.968347,133.755254 L122.070997,134.672412 C122.304893,134.885244 122.546013,135.112504 122.793455,135.343372 C124.787437,137.211057 127.269078,139.534164 130.316945,139.534164 C133.366618,139.534164 135.848259,137.210155 137.842241,135.34247 C138.063494,135.13505 138.280231,134.932139 138.490647,134.739148 L139.667349,133.755254 C141.620693,132.122045 144.100528,131.222021 146.649899,131.222021" id="Fill-44" fill="#0F91F2"></path>
                                <path d="M106.782446,142.093821 C106.782446,138.07618 110.043437,134.818779 114.066622,134.818779 C118.089806,134.818779 121.351701,138.07618 121.351701,142.093821 C121.351701,146.111462 118.089806,149.367961 114.066622,149.367961 C110.043437,149.367961 106.782446,146.111462 106.782446,142.093821" id="Fill-46" fill="#FFFFFF"></path>
                                <path d="M139.562051,142.093821 C139.562051,138.07618 142.823946,134.818779 146.84713,134.818779 C150.870314,134.818779 154.131306,138.07618 154.131306,142.093821 C154.131306,146.111462 150.870314,149.367961 146.84713,149.367961 C142.823946,149.367961 139.562051,146.111462 139.562051,142.093821" id="Fill-48" fill="#0F91F2"></path>
                                <path d="M170.058781,112.643474 C162.791763,112.643474 156.900124,118.526094 156.900124,125.784001 C156.900124,128.992703 158.054249,131.931759 159.966955,134.213382 L159.956118,134.213382 C161.619576,136.406627 164.994355,139.135556 164.994355,142.094452 C164.994355,145.052446 161.619576,147.781376 159.957022,149.973718 L159.966955,149.973718 C158.054249,152.255341 156.900124,155.194397 156.900124,158.403099 C156.900124,165.661006 162.791763,171.544528 170.058781,171.544528 C177.325799,171.544528 183.217439,165.661006 183.217439,158.403099 C183.217439,155.194397 182.064216,152.255341 180.150607,149.973718 L180.168669,149.973718 C178.506114,147.780474 174.893827,145.051544 174.893827,142.09355 C174.893827,139.134654 178.506114,136.406627 180.168669,134.213382 L180.150607,134.213382 C182.064216,131.931759 183.217439,128.992703 183.217439,125.784001 C183.217439,118.526094 177.325799,112.643474 170.058781,112.643474 M170.058781,114.912472 C176.061499,114.912472 180.94531,119.789555 180.94531,125.784001 C180.94531,128.32986 180.044948,130.806278 178.408582,132.756931 L177.490158,133.858964 C177.27613,134.092537 177.049459,134.333325 176.818273,134.580426 C174.948914,136.570759 172.621699,139.048981 172.621699,142.09355 C172.621699,145.13812 174.948914,147.616341 176.819176,149.607576 C177.026882,149.829426 177.23188,150.046766 177.42604,150.257794 L178.409485,151.430169 C180.044948,153.380822 180.94531,155.85724 180.94531,158.403099 C180.94531,164.397546 176.061499,169.274628 170.058781,169.274628 C164.056064,169.274628 159.172252,164.397546 159.172252,158.403099 C159.172252,155.85724 160.073518,153.380822 161.708981,151.430169 L162.821565,150.099072 C162.935352,149.971914 163.051848,149.842953 163.170151,149.712188 C164.995258,147.687586 167.266484,145.166978 167.266484,142.094452 C167.266484,139.021024 164.994355,136.500417 163.169247,134.474912 C163.073522,134.368497 162.978699,134.263885 162.885683,134.159273 L161.708981,132.756931 C160.073518,130.806278 159.172252,128.32986 159.172252,125.784001 C159.172252,119.789555 164.056064,114.912472 170.058781,114.912472" id="Fill-50" fill="#FFFFFF"></path>
                                <path d="M170.058781,151.154751 C174.081966,151.154751 177.34386,154.412152 177.34386,158.429793 C177.34386,162.447434 174.081966,165.703933 170.058781,165.703933 C166.035597,165.703933 162.774605,162.447434 162.774605,158.429793 C162.774605,154.412152 166.035597,151.154751 170.058781,151.154751" id="Fill-54" fill="#0F91F2"></path>
                                <path d="M186.05209,142.093821 C186.05209,138.07618 189.313082,134.818779 193.336266,134.818779 C197.359451,134.818779 200.621346,138.07618 200.621346,142.093821 C200.621346,146.111462 197.359451,149.367961 193.336266,149.367961 C189.313082,149.367961 186.05209,146.111462 186.05209,142.093821" id="Fill-56" fill="#0F91F2"></path>
                                <path d="M152.846596,171.353882 C145.637375,171.353882 139.792695,177.189607 139.792695,184.388895 C139.792695,191.588183 145.637375,197.42481 152.846596,197.42481 C160.055818,197.42481 165.899594,191.588183 165.899594,184.388895 C165.899594,177.189607 160.055818,171.353882 152.846596,171.353882 M152.846596,173.622879 C158.791517,173.622879 163.627466,178.452165 163.627466,184.388895 C163.627466,190.325625 158.791517,195.155813 152.846596,195.155813 C146.901676,195.155813 142.064824,190.325625 142.064824,184.388895 C142.064824,178.452165 146.901676,173.622879 152.846596,173.622879" id="Fill-62" fill="#0F91F2"></path>
                                <path d="M106.159416,171.248638 C102.946287,171.248638 100.003177,172.400272 97.7184055,174.311244 L97.7184055,174.293208 C95.5221352,175.953472 92.7894403,179.560782 89.8273653,179.560782 C86.8643871,179.560782 84.1316922,175.953472 81.936325,174.29411 L81.936325,174.311244 C79.6515537,172.400272 76.7084431,171.248638 73.4953141,171.248638 C66.2273932,171.248638 60.3366567,177.13216 60.3366567,184.389166 C60.3366567,191.647073 66.2273932,197.529693 73.4953141,197.529693 C76.7084431,197.529693 79.6515537,196.378059 81.936325,194.467087 L81.936325,194.477909 C84.1316922,192.817645 86.8652902,189.447516 89.8282683,189.447516 C92.7894403,189.447516 95.5230383,192.817645 97.7184055,194.477007 L97.7184055,194.467087 C100.003177,196.378059 102.946287,197.529693 106.159416,197.529693 C113.426434,197.529693 119.318074,191.647073 119.318074,184.389166 C119.318074,177.13216 113.426434,171.248638 106.159416,171.248638 M106.159416,173.517636 C112.162134,173.517636 117.045945,178.394719 117.045945,184.389166 C117.045945,190.384514 112.162134,195.260695 106.159416,195.260695 C103.610045,195.260695 101.13021,194.360671 99.1768663,192.727462 L97.8403202,191.613705 C97.7138902,191.500977 97.585654,191.385543 97.4556117,191.268305 C95.4282158,189.446614 92.9050335,187.178518 89.8282683,187.178518 C86.749697,187.178518 84.2265147,189.446614 82.1991188,191.269207 C82.0925564,191.364801 81.986897,191.460394 81.8821407,191.553283 L80.4778642,192.727462 C78.5245202,194.360671 76.0446854,195.260695 73.4953141,195.260695 C67.4925967,195.260695 62.6087851,190.384514 62.6087851,184.389166 C62.6087851,178.394719 67.4925967,173.517636 73.4953141,173.517636 C76.0446854,173.517636 78.5245202,174.41766 80.4778642,176.050869 L81.5814178,176.968028 C81.8144103,177.180859 82.0564335,177.40812 82.3029721,177.638987 C84.2969543,179.506672 86.7785953,181.829779 89.8273653,181.829779 C92.8761352,181.829779 95.3577762,179.50577 97.3517584,177.638086 C97.573011,177.430665 97.7897482,177.227754 98.0001639,177.034763 L99.1768663,176.050869 C101.13021,174.41766 103.610045,173.517636 106.159416,173.517636" id="Fill-64" fill="#0F91F2"></path>
                                <path d="M66.2919629,184.389436 C66.2919629,180.371795 69.5538577,177.114394 73.577042,177.114394 C77.6002263,177.114394 80.8612182,180.371795 80.8612182,184.389436 C80.8612182,188.407077 77.6002263,191.663576 73.577042,191.663576 C69.5538577,191.663576 66.2919629,188.407077 66.2919629,184.389436" id="Fill-66" fill="#FFFFFF"></path>
                                <path d="M99.0719294,184.389436 C99.0719294,180.371795 102.332921,177.114394 106.356105,177.114394 C110.37929,177.114394 113.641185,180.371795 113.641185,184.389436 C113.641185,188.407077 110.37929,191.663576 106.356105,191.663576 C102.332921,191.663576 99.0719294,188.407077 99.0719294,184.389436" id="Fill-68" fill="#0F91F2"></path>
                                <path d="M129.56866,154.93909 C122.301642,154.93909 116.410002,160.82171 116.410002,168.079617 C116.410002,171.288319 117.563225,174.227374 119.476834,176.508998 L119.465997,176.508998 C121.129455,178.702242 124.504234,181.431172 124.504234,184.390067 C124.504234,187.348061 121.129455,190.076991 119.4669,192.269334 L119.476834,192.269334 C117.563225,194.550957 116.410002,197.490012 116.410002,200.698714 C116.410002,207.956621 122.301642,213.840143 129.56866,213.840143 C136.835677,213.840143 142.727317,207.956621 142.727317,200.698714 C142.727317,197.490012 141.574095,194.550957 139.660486,192.269334 L139.678547,192.269334 C138.015992,190.076089 134.403705,187.34716 134.403705,184.389166 C134.403705,181.43027 138.015992,178.702242 139.677644,176.508998 L139.660486,176.508998 C141.574095,174.227374 142.727317,171.288319 142.727317,168.079617 C142.727317,160.82171 136.835677,154.93909 129.56866,154.93909 M129.56866,157.208087 C135.571377,157.208087 140.455189,162.08517 140.455189,168.079617 C140.455189,170.625476 139.554826,173.101894 137.91846,175.052546 L137.000037,176.15458 C136.786009,176.388153 136.559338,176.628941 136.327248,176.876041 C134.45789,178.866375 132.131577,181.344596 132.131577,184.389166 C132.131577,187.433735 134.458793,189.911957 136.329054,191.903192 C136.536761,192.125041 136.740855,192.342382 136.935015,192.553409 L137.91846,193.725785 C139.554826,195.676437 140.455189,198.152856 140.455189,200.698714 C140.455189,206.694063 135.571377,211.570244 129.56866,211.570244 C123.565942,211.570244 118.682131,206.694063 118.682131,200.698714 C118.682131,198.152856 119.582493,195.676437 121.218859,193.725785 L122.331443,192.394688 C122.44523,192.26753 122.561727,192.138569 122.680029,192.007804 C124.505137,189.983201 126.775459,187.462593 126.775459,184.390067 C126.775459,181.31664 124.504234,178.796032 122.679126,176.770528 C122.5834,176.664112 122.488578,176.5595 122.395561,176.454888 L121.218859,175.052546 C119.583396,173.101894 118.682131,170.625476 118.682131,168.079617 C118.682131,162.08517 123.565942,157.208087 129.56866,157.208087" id="Fill-70" fill="#FFFFFF"></path>
                                <path d="M129.56866,160.886371 C133.591844,160.886371 136.852836,164.143771 136.852836,168.161413 C136.852836,172.179054 133.591844,175.435553 129.56866,175.435553 C125.545475,175.435553 122.284484,172.179054 122.284484,168.161413 C122.284484,164.143771 125.545475,160.886371 129.56866,160.886371" id="Fill-72" fill="#FFFFFF"></path>
                                <path d="M129.56866,193.450818 C133.591844,193.450818 136.852836,196.707316 136.852836,200.724958 C136.852836,204.742599 133.591844,207.999999 129.56866,207.999999 C125.545475,207.999999 122.284484,204.742599 122.284484,200.724958 C122.284484,196.707316 125.545475,193.450818 129.56866,193.450818" id="Fill-74" fill="#0F91F2"></path>
                                <path d="M145.561608,184.389436 C145.561608,180.371795 148.823502,177.114394 152.846687,177.114394 C156.869871,177.114394 160.130863,180.371795 160.130863,184.389436 C160.130863,188.407077 156.869871,191.663576 152.846687,191.663576 C148.823502,191.663576 145.561608,188.407077 145.561608,184.389436" id="Fill-76" fill="#0F91F2"></path>
                                <path d="M89.9490993,147.978966 C82.7398782,147.978966 76.8951983,153.815593 76.8951983,161.014881 C76.8951983,168.21417 82.7398782,174.049895 89.9490993,174.049895 C97.1583205,174.049895 103.003,168.21417 103.003,161.014881 C103.003,153.815593 97.1583205,147.978966 89.9490993,147.978966 M89.9490993,150.247964 C95.8940201,150.247964 100.729969,155.078151 100.729969,161.014881 C100.729969,166.951611 95.8940201,171.780897 89.9490993,171.780897 C84.0041785,171.780897 79.1682297,166.951611 79.1682297,161.014881 C79.1682297,155.078151 84.0041785,150.247964 89.9490993,150.247964" id="Fill-78" fill="#0F91F2"></path>
                                <path d="M82.664562,161.014521 C82.664562,156.996879 85.9255538,153.740381 89.9487381,153.740381 C93.9719224,153.740381 97.2338173,156.996879 97.2338173,161.014521 C97.2338173,165.032162 93.9719224,168.289562 89.9487381,168.289562 C85.9255538,168.289562 82.664562,165.032162 82.664562,161.014521" id="Fill-80" fill="#0F91F2"></path>
                                <path d="M254.470787,191.670069 C247.261566,191.670069 241.416886,197.506696 241.416886,204.705984 C241.416886,211.904371 247.261566,217.740998 254.470787,217.740998 C261.680008,217.740998 267.524688,211.904371 267.524688,204.705984 C267.524688,197.506696 261.680008,191.670069 254.470787,191.670069 M254.470787,193.939067 C260.415708,193.939067 265.251657,198.769255 265.251657,204.705984 C265.251657,210.642714 260.415708,215.472 254.470787,215.472 C248.525866,215.472 243.689917,210.642714 243.689917,204.705984 C243.689917,198.769255 248.525866,193.939067 254.470787,193.939067" id="Fill-82" fill="#0F91F2"></path>
                                <path d="M207.784058,191.565277 C204.570026,191.565277 201.627819,192.71691 199.342145,194.627883 L199.342145,194.608944 C197.146777,196.27011 194.414082,199.87742 191.451104,199.87742 C188.489029,199.87742 185.756334,196.27011 183.560967,194.609846 L183.560967,194.627883 C181.276196,192.71691 178.333085,191.565277 175.119053,191.565277 C167.852035,191.565277 161.960396,197.447897 161.960396,204.705804 C161.960396,211.962809 167.852035,217.846331 175.119053,217.846331 C178.333085,217.846331 181.276196,216.694698 183.560967,214.783725 L183.560967,214.793645 C185.756334,213.133381 188.489932,209.763252 191.452007,209.763252 C194.414082,209.763252 197.146777,213.133381 199.342145,214.792744 L199.342145,214.783725 C201.627819,216.694698 204.570026,217.846331 207.784058,217.846331 C215.051076,217.846331 220.942716,211.962809 220.942716,204.705804 C220.942716,197.447897 215.051076,191.565277 207.784058,191.565277 M207.784058,193.834275 C213.786776,193.834275 218.670588,198.711357 218.670588,204.705804 C218.670588,210.700251 213.786776,215.576432 207.784058,215.576432 C205.234687,215.576432 202.754852,214.67731 200.801508,213.0441 L199.464962,211.930343 C199.338532,211.816713 199.209393,211.702181 199.080254,211.584944 C197.052858,209.76235 194.529676,207.495156 191.452007,207.495156 C188.374339,207.495156 185.850254,209.763252 183.822858,211.584944 C183.716295,211.681439 183.610636,211.776131 183.506783,211.869019 L182.102506,213.0441 C180.148259,214.67731 177.668424,215.576432 175.119053,215.576432 C169.116336,215.576432 164.232524,210.700251 164.232524,204.705804 C164.232524,198.711357 169.116336,193.834275 175.119053,193.834275 C177.668424,193.834275 180.148259,194.733397 182.102506,196.367508 L183.205157,197.284666 C183.439052,197.497498 183.680172,197.724758 183.927614,197.955626 C185.921596,199.82331 188.403237,202.146418 191.451104,202.146418 C194.500777,202.146418 196.982418,199.822409 198.9764,197.954724 C199.197653,197.747304 199.41439,197.544393 199.624806,197.351402 L200.801508,196.367508 C202.754852,194.733397 205.234687,193.834275 207.784058,193.834275" id="Fill-84" fill="#0F91F2"></path>
                                <path d="M167.916605,204.705624 C167.916605,200.687983 171.177597,197.431484 175.200781,197.431484 C179.223965,197.431484 182.48586,200.687983 182.48586,204.705624 C182.48586,208.723265 179.223965,211.979764 175.200781,211.979764 C171.177597,211.979764 167.916605,208.723265 167.916605,204.705624" id="Fill-86" fill="#FFFFFF"></path>
                                <path d="M200.69621,204.705624 C200.69621,200.687983 203.958105,197.431484 207.981289,197.431484 C212.004474,197.431484 215.265465,200.687983 215.265465,204.705624 C215.265465,208.723265 212.004474,211.979764 207.981289,211.979764 C203.958105,211.979764 200.69621,208.723265 200.69621,204.705624" id="Fill-88" fill="#0F91F2"></path>
                                <g id="Group-92" transform="translate(217.640273, 175.236489)">
                                    <mask id="mask-6" fill="white">
                                        <use xlink:href="#path-5"></use>
                                    </mask>
                                    <g id="Clip-91"></g>
                                    <path d="M13.5526675,0.0187880711 C6.28564976,0.0187880711 0.394010171,5.9023101 0.394010171,13.1593153 C0.394010171,16.3680172 1.54813577,19.3079746 3.46084157,21.5886961 L3.45000471,21.5886961 C5.11346273,23.7819404 8.48824157,26.5108701 8.48824157,29.4697658 C8.48824157,32.4277597 5.11346273,35.1566895 3.45090778,37.3490319 L3.46084157,37.3490319 C1.54813577,39.6306553 0.394010171,42.5697108 0.394010171,45.7784127 C0.394010171,53.0363197 6.28564976,58.9198418 13.5526675,58.9198418 C20.8196853,58.9198418 26.7113248,53.0363197 26.7113248,45.7784127 C26.7113248,42.5697108 25.5581023,39.6306553 23.6444934,37.3490319 L23.6625549,37.3490319 C21.9999999,35.1566895 18.3877132,32.4268579 18.3877132,29.468864 C18.3877132,26.5099683 21.9999999,23.7819404 23.6625549,21.5886961 L23.6444934,21.5886961 C25.5581023,19.3079746 26.7113248,16.3680172 26.7113248,13.1593153 C26.7113248,5.9023101 20.8196853,0.0187880711 13.5526675,0.0187880711 M13.5526675,2.28778584 C19.5553849,2.28778584 24.4391965,7.16486848 24.4391965,13.1593153 C24.4391965,15.7051741 23.5388341,18.1815921 21.9024682,20.1322448 L20.9840443,21.2342779 C20.7700163,21.4678512 20.5433453,21.7086391 20.312159,21.9557398 C18.4428006,23.9469748 16.1155849,26.4242947 16.1155849,29.468864 C16.1155849,32.5134334 18.4428006,34.9916551 20.313062,36.98289 C20.5207685,37.2047395 20.7257658,37.4220799 20.9199262,37.6331076 L21.9024682,38.8054832 C23.5388341,40.7561359 24.4391965,43.232554 24.4391965,45.7784127 C24.4391965,51.7737614 19.5553849,56.6499422 13.5526675,56.6499422 C7.5499501,56.6499422 2.6661385,51.7737614 2.6661385,45.7784127 C2.6661385,43.232554 3.56740403,40.7561359 5.20286683,38.8054832 L6.31545113,37.4743859 C6.42923816,37.3472283 6.5457344,37.218267 6.66403679,37.087502 C8.48914464,35.0628994 10.7603699,32.5422918 10.7603699,29.4697658 C10.7603699,26.396338 8.48824157,23.8757304 6.66313372,21.850226 C6.56740812,21.7438104 6.4725856,21.6391984 6.37956922,21.5354883 L5.20286683,20.1322448 C3.56740403,18.1815921 2.6661385,15.7051741 2.6661385,13.1593153 C2.6661385,7.16486848 7.5499501,2.28778584 13.5526675,2.28778584" id="Fill-90" fill="#FFFFFF" mask="url(#mask-6)"></path>
                                </g>
                                <path d="M231.192941,181.2031 C235.216125,181.2031 238.47802,184.459598 238.47802,188.477239 C238.47802,192.494881 235.216125,195.752281 231.192941,195.752281 C227.169756,195.752281 223.908764,192.494881 223.908764,188.477239 C223.908764,184.459598 227.169756,181.2031 231.192941,181.2031" id="Fill-93" fill="#FFFFFF"></path>
                                <path d="M231.192941,213.767005 C235.216125,213.767005 238.47802,217.023504 238.47802,221.041145 C238.47802,225.058786 235.216125,228.316187 231.192941,228.316187 C227.169756,228.316187 223.908764,225.058786 223.908764,221.041145 C223.908764,217.023504 227.169756,213.767005 231.192941,213.767005" id="Fill-95" fill="#0F91F2"></path>
                                <path d="M247.185798,204.705624 C247.185798,200.687983 250.447693,197.431484 254.470877,197.431484 C258.494062,197.431484 261.755053,200.687983 261.755053,204.705624 C261.755053,208.723265 258.494062,211.979764 254.470877,211.979764 C250.447693,211.979764 247.185798,208.723265 247.185798,204.705624" id="Fill-97" fill="#0F91F2"></path>
                                <path d="M191.57329,168.295244 C184.364069,168.295244 178.519389,174.131871 178.519389,181.331159 C178.519389,188.530447 184.364069,194.366172 191.57329,194.366172 C198.782511,194.366172 204.627191,188.530447 204.627191,181.331159 C204.627191,174.131871 198.782511,168.295244 191.57329,168.295244 M191.57329,170.564242 C197.518211,170.564242 202.354159,175.394429 202.354159,181.331159 C202.354159,187.267889 197.518211,192.098076 191.57329,192.098076 C185.628369,192.098076 180.79242,187.267889 180.79242,181.331159 C180.79242,175.394429 185.628369,170.564242 191.57329,170.564242" id="Fill-99" fill="#0F91F2"></path>
                                <path d="M184.288752,181.331249 C184.288752,177.313608 187.549744,174.056207 191.572929,174.056207 C195.596113,174.056207 198.858008,177.313608 198.858008,181.331249 C198.858008,185.34889 195.596113,188.605389 191.572929,188.605389 C187.549744,188.605389 184.288752,185.34889 184.288752,181.331249" id="Fill-101" fill="#0F91F2"></path>
                                <path d="M312.143924,89.6622965 C304.876906,89.6622965 298.985267,95.5458185 298.985267,102.802824 C298.985267,106.011526 300.138489,108.951483 302.052098,111.232205 L302.041261,111.232205 C303.703816,113.425449 307.078595,116.154379 307.078595,119.113274 C307.078595,122.071268 303.704719,124.800198 302.042164,126.99254 L302.052098,126.99254 C300.138489,129.274164 298.985267,132.213219 298.985267,135.421921 C298.985267,142.679828 304.876906,148.56335 312.143924,148.56335 C319.410942,148.56335 325.302581,142.679828 325.302581,135.421921 C325.302581,132.213219 324.149359,129.274164 322.23575,126.99254 L322.253811,126.99254 C320.591256,124.800198 316.97897,122.070366 316.97897,119.112372 C316.97897,116.153477 320.591256,113.425449 322.252908,111.232205 L322.23575,111.232205 C324.148456,108.951483 325.302581,106.011526 325.302581,102.802824 C325.302581,95.5458185 319.410942,89.6622965 312.143924,89.6622965 M312.143924,91.9312943 C318.146641,91.9312943 323.030453,96.8083769 323.030453,102.802824 C323.030453,105.348683 322.129188,107.825101 320.493725,109.775753 L319.574398,110.877786 C319.361273,111.11136 319.134602,111.352148 318.902512,111.599248 C317.033154,113.590483 314.705938,116.067803 314.705938,119.112372 C314.705938,122.156942 317.034057,124.635164 318.903415,126.626398 C319.112025,126.848248 319.316119,127.065588 319.51028,127.276616 L320.493725,128.448992 C322.129188,130.399644 323.030453,132.876062 323.030453,135.421921 C323.030453,141.41727 318.146641,146.293451 312.143924,146.293451 C306.141207,146.293451 301.257395,141.41727 301.257395,135.421921 C301.257395,132.876062 302.157757,130.399644 303.794123,128.448992 L304.906708,127.117894 C305.020495,126.990737 305.136991,126.861775 305.255293,126.73101 C307.079498,124.706408 309.350723,122.1858 309.350723,119.113274 C309.350723,116.039846 307.079498,113.519239 305.25439,111.493734 C305.158665,111.388221 305.063842,111.282707 304.970826,111.178997 L303.794123,109.775753 C302.157757,107.825101 301.257395,105.348683 301.257395,102.802824 C301.257395,96.8083769 306.141207,91.9312943 312.143924,91.9312943" id="Fill-172" fill="#FFFFFF"></path>
                                <path d="M312.143924,128.174024 C316.167108,128.174024 319.4281,131.430523 319.4281,135.448164 C319.4281,139.465805 316.167108,142.723206 312.143924,142.723206 C308.12074,142.723206 304.858845,139.465805 304.858845,135.448164 C304.858845,131.430523 308.12074,128.174024 312.143924,128.174024" id="Fill-176" fill="#0F91F2"></path>
                                <path d="M294.931378,148.372704 C287.722157,148.372704 281.877477,154.209331 281.877477,161.408619 C281.877477,168.607006 287.722157,174.443633 294.931378,174.443633 C302.140599,174.443633 307.985279,168.607006 307.985279,161.408619 C307.985279,154.209331 302.140599,148.372704 294.931378,148.372704 M294.931378,150.641702 C300.876299,150.641702 305.712248,155.471889 305.712248,161.408619 C305.712248,167.345349 300.876299,172.174635 294.931378,172.174635 C288.986457,172.174635 284.150508,167.345349 284.150508,161.408619 C284.150508,155.471889 288.986457,150.641702 294.931378,150.641702" id="Fill-184" fill="#0F91F2"></path>
                                <path d="M248.244559,148.267912 C245.030527,148.267912 242.08832,149.419545 239.802645,151.330517 L239.802645,151.311579 C237.607278,152.972745 234.874583,156.580055 231.911605,156.580055 C228.94953,156.580055 226.216835,152.972745 224.021468,151.312481 L224.021468,151.330517 C221.736696,149.419545 218.793586,148.267912 215.580457,148.267912 C208.312536,148.267912 202.420896,154.150532 202.420896,161.408439 C202.420896,168.665444 208.312536,174.548966 215.580457,174.548966 C218.793586,174.548966 221.736696,173.397332 224.021468,171.48636 L224.021468,171.49628 C226.216835,169.836918 228.950433,166.466789 231.912508,166.466789 C234.874583,166.466789 237.607278,169.836016 239.802645,171.49628 L239.802645,171.48636 C242.08832,173.397332 245.030527,174.548966 248.244559,174.548966 C255.511577,174.548966 261.403217,168.665444 261.403217,161.408439 C261.403217,154.150532 255.511577,148.267912 248.244559,148.267912 M248.244559,150.536909 C254.247277,150.536909 259.131088,155.413992 259.131088,161.408439 C259.131088,167.402886 254.247277,172.279968 248.244559,172.279968 C245.695188,172.279968 243.215353,171.379944 241.262009,169.746735 L239.925463,168.632978 C239.799033,168.519348 239.669894,168.404816 239.540754,168.287578 C237.513359,166.464985 234.990176,164.197791 231.912508,164.197791 C228.83484,164.197791 226.310754,166.465887 224.283359,168.28848 C224.176796,168.384074 224.071137,168.478766 223.967283,168.571654 L222.563007,169.746735 C220.60876,171.379944 218.129828,172.279968 215.580457,172.279968 C209.576836,172.279968 204.693025,167.402886 204.693025,161.408439 C204.693025,155.413992 209.576836,150.536909 215.580457,150.536909 C218.129828,150.536909 220.60876,151.436933 222.563007,153.070143 L223.665658,153.987301 C223.899553,154.200132 224.141576,154.427393 224.388115,154.658261 C226.382097,156.525945 228.863738,158.849053 231.911605,158.849053 C234.961278,158.849053 237.442919,156.525043 239.436901,154.657359 C239.658154,154.449938 239.874891,154.247027 240.085307,154.054036 L241.262009,153.070143 C243.215353,151.436933 245.695188,150.536909 248.244559,150.536909" id="Fill-186" fill="#0F91F2"></path>
                                <path d="M208.377106,161.408258 C208.377106,157.390617 211.638097,154.134119 215.661282,154.134119 C219.684466,154.134119 222.946361,157.390617 222.946361,161.408258 C222.946361,165.4259 219.684466,168.6833 215.661282,168.6833 C211.638097,168.6833 208.377106,165.4259 208.377106,161.408258" id="Fill-188" fill="#FFFFFF"></path>
                                <path d="M241.156711,161.408258 C241.156711,157.390617 244.418606,154.134119 248.44179,154.134119 C252.464974,154.134119 255.725966,157.390617 255.725966,161.408258 C255.725966,165.4259 252.464974,168.6833 248.44179,168.6833 C244.418606,168.6833 241.156711,165.4259 241.156711,161.408258" id="Fill-190" fill="#0F91F2"></path>
                                <path d="M271.653441,131.957912 C264.386424,131.957912 258.494784,137.841434 258.494784,145.098439 C258.494784,148.307141 259.64891,151.247098 261.561615,153.52782 L261.550778,153.52782 C263.214237,155.721064 266.589015,158.449994 266.589015,161.40889 C266.589015,164.366884 263.214237,167.095813 261.551682,169.288156 L261.561615,169.288156 C259.64891,171.569779 258.494784,174.509736 258.494784,177.718438 C258.494784,184.975444 264.386424,190.858966 271.653441,190.858966 C278.920459,190.858966 284.812099,184.975444 284.812099,177.718438 C284.812099,174.509736 283.658876,171.569779 281.745267,169.288156 L281.763329,169.288156 C280.100774,167.095813 276.488487,164.366884 276.488487,161.407988 C276.488487,158.449994 280.100774,155.721064 281.763329,153.52782 L281.745267,153.52782 C283.658876,151.247098 284.812099,148.307141 284.812099,145.098439 C284.812099,137.841434 278.920459,131.957912 271.653441,131.957912 M271.653441,134.22691 C277.656159,134.22691 282.53997,139.103992 282.53997,145.098439 C282.53997,147.6452 281.639608,150.121618 280.003242,152.07227 L279.084818,153.173402 C278.871693,153.406975 278.644119,153.647763 278.412933,153.894864 C276.543574,155.886099 274.216359,158.363419 274.216359,161.407988 C274.216359,164.452557 276.543574,166.930779 278.413836,168.922014 C278.622445,169.143863 278.82654,169.362106 279.0207,169.572231 L280.004145,170.744607 C281.639608,172.69526 282.53997,175.171678 282.53997,177.718438 C282.53997,183.712885 277.656159,188.589066 271.653441,188.589066 C265.650724,188.589066 260.766912,183.712885 260.766912,177.718438 C260.766912,175.171678 261.668178,172.69526 263.303641,170.744607 L264.416225,169.41351 C264.530012,169.286352 264.646508,169.157391 264.764811,169.026626 C266.589918,167.002023 268.861144,164.482318 268.861144,161.40889 C268.861144,158.335462 266.589015,155.814854 264.763908,153.78935 C264.668182,153.683836 264.573359,153.578322 264.480343,153.474612 L263.303641,152.07227 C261.668178,150.121618 260.766912,147.6452 260.766912,145.098439 C260.766912,139.103992 265.650724,134.22691 271.653441,134.22691" id="Fill-192" fill="#FFFFFF"></path>
                                <path d="M271.653441,137.905644 C275.676626,137.905644 278.93852,141.162143 278.93852,145.179784 C278.93852,149.197425 275.676626,152.454826 271.653441,152.454826 C267.630257,152.454826 264.369265,149.197425 264.369265,145.179784 C264.369265,141.162143 267.630257,137.905644 271.653441,137.905644" id="Fill-194" fill="#FFFFFF"></path>
                                <path d="M271.653441,170.46964 C275.676626,170.46964 278.93852,173.726139 278.93852,177.74378 C278.93852,181.761421 275.676626,185.018821 271.653441,185.018821 C267.630257,185.018821 264.369265,181.761421 264.369265,177.74378 C264.369265,173.726139 267.630257,170.46964 271.653441,170.46964" id="Fill-196" fill="#0F91F2"></path>
                                <path d="M287.64675,161.408258 C287.64675,157.390617 290.907742,154.134119 294.930926,154.134119 C298.954111,154.134119 302.216006,157.390617 302.216006,161.408258 C302.216006,165.4259 298.954111,168.6833 294.930926,168.6833 C290.907742,168.6833 287.64675,165.4259 287.64675,161.408258" id="Fill-198" fill="#0F91F2"></path>
                                <path d="M232.033791,124.998239 C224.824569,124.998239 218.97989,130.834866 218.97989,138.034154 C218.97989,145.232541 224.824569,151.069168 232.033791,151.069168 C239.243012,151.069168 245.087692,145.232541 245.087692,138.034154 C245.087692,130.834866 239.243012,124.998239 232.033791,124.998239 M232.033791,127.267237 C237.978711,127.267237 242.81466,132.097425 242.81466,138.034154 C242.81466,143.970884 237.978711,148.80017 232.033791,148.80017 C226.08887,148.80017 221.252921,143.970884 221.252921,138.034154 C221.252921,132.097425 226.08887,127.267237 232.033791,127.267237" id="Fill-200" fill="#0F91F2"></path>
                                <path d="M224.749253,138.033794 C224.749253,134.016153 228.010245,130.759654 232.033429,130.759654 C236.056614,130.759654 239.318509,134.016153 239.318509,138.033794 C239.318509,142.051435 236.056614,145.307934 232.033429,145.307934 C228.010245,145.307934 224.749253,142.051435 224.749253,138.033794" id="Fill-202" fill="#0F91F2"></path>
                            </g>
                        </g>
                    </g>
                </g>
            </g>
        </g>
    </g>
</svg>