<?xml version="1.0" encoding="UTF-8"?>
<svg width="32px" height="32px" viewBox="0 0 32 32" version="1.1" xmlns="http://www.w3.org/2000/svg" xmlns:xlink="http://www.w3.org/1999/xlink">
    <title>event-24px</title>
    <g id="Final-Direction" stroke="none" stroke-width="1" fill="none" fill-rule="evenodd">
        <g id="IovanceCaresV2.1" transform="translate(-432.000000, -348.000000)">
            <g id="event-24px" transform="translate(432.000000, 348.000000)">
                <polygon id="Path" points="0 0 32 0 32 32 0 32"></polygon>
                <path d="M22.6666667,16 L16,16 L16,22.6666667 L22.6666667,22.6666667 L22.6666667,16 Z M21.3333333,1.33333333 L21.3333333,4 L10.6666667,4 L10.6666667,1.33333333 L8,1.33333333 L8,4 L6.66666667,4 C5.18666667,4 4.01333333,5.2 4.01333333,6.66666667 L4,25.3333333 C4,26.8 5.18666667,28 6.66666667,28 L25.3333333,28 C26.8,28 28,26.8 28,25.3333333 L28,6.66666667 C28,5.2 26.8,4 25.3333333,4 L24,4 L24,1.33333333 L21.3333333,1.33333333 Z M25.3333333,25.3333333 L6.66666667,25.3333333 L6.66666667,10.6666667 L25.3333333,10.6666667 L25.3333333,25.3333333 Z" id="Shape" fill="#344251" fill-rule="nonzero"></path>
            </g>
        </g>
    </g>
</svg>