<?xml version="1.0" encoding="UTF-8"?>
<svg width="32px" height="32px" viewBox="0 0 32 32" version="1.1" xmlns="http://www.w3.org/2000/svg" xmlns:xlink="http://www.w3.org/1999/xlink">
    <title>assignment_ind-24px</title>
    <g id="Final-Direction" stroke="none" stroke-width="1" fill="none" fill-rule="evenodd">
        <g id="IovanceCaresV2.1" transform="translate(-432.000000, -292.000000)">
            <g id="assignment_ind-24px" transform="translate(432.000000, 292.000000)">
                <polygon id="Path" points="0 0 32 0 32 32 0 32"></polygon>
                <path d="M25.3333333,4 L19.76,4 C19.2,2.45333333 17.7333333,1.33333333 16,1.33333333 C14.2666667,1.33333333 12.8,2.45333333 12.24,4 L6.66666667,4 C5.2,4 4,5.2 4,6.66666667 L4,25.3333333 C4,26.8 5.2,28 6.66666667,28 L25.3333333,28 C26.8,28 28,26.8 28,25.3333333 L28,6.66666667 C28,5.2 26.8,4 25.3333333,4 Z M16,4 C16.7333333,4 17.3333333,4.6 17.3333333,5.33333333 C17.3333333,6.06666667 16.7333333,6.66666667 16,6.66666667 C15.2666667,6.66666667 14.6666667,6.06666667 14.6666667,5.33333333 C14.6666667,4.6 15.2666667,4 16,4 Z M16,9.33333333 C18.2133333,9.33333333 20,11.12 20,13.3333333 C20,15.5466667 18.2133333,17.3333333 16,17.3333333 C13.7866667,17.3333333 12,15.5466667 12,13.3333333 C12,11.12 13.7866667,9.33333333 16,9.33333333 Z M24,25.3333333 L8,25.3333333 L8,23.4666667 C8,20.8 13.3333333,19.3333333 16,19.3333333 C18.6666667,19.3333333 24,20.8 24,23.4666667 L24,25.3333333 Z" id="Shape" fill="#344251" fill-rule="nonzero"></path>
            </g>
        </g>
    </g>
</svg>