<?xml version="1.0" encoding="UTF-8"?>
<svg width="26px" height="25px" viewBox="0 0 26 25" version="1.1" xmlns="http://www.w3.org/2000/svg" xmlns:xlink="http://www.w3.org/1999/xlink">
    <title>Path</title>
    <g id="Final-Direction" stroke="none" stroke-width="1" fill="none" fill-rule="evenodd">
        <g id="IovanceCaresV2.1-Mobile" transform="translate(-177.000000, -357.000000)" fill="#FFFFFF">
            <g id="Group-9" transform="translate(177.000000, 152.000000)">
                <path d="M7.60384365,206.872459 C9.19689826,208.357513 9.83412011,209.584297 9.89784229,210.29454 C9.89784229,210.55281 9.83412011,210.617377 9.83412011,210.681945 C9.70667574,210.81108 8.75084297,211.844161 8.55967642,212.037864 C8.49595423,212.102431 8.30478768,212.296134 8.2410655,212.618972 C7.98617676,213.329215 8.04989894,214.362296 8.94200953,215.201674 C11.2997303,217.590674 14.8044505,221.141889 15.6965611,222.110403 L15.6965611,222.368673 L16.2700607,222.626943 C16.5249495,222.756078 16.7798382,222.820646 17.0347269,222.820646 C17.3533379,222.820646 17.6719488,222.756078 17.9268375,222.562375 C18.1180041,222.497808 18.3091706,222.304105 18.436615,222.17497 C18.8189481,221.852132 19.0738368,221.65843 19.2012812,221.529295 C19.5198921,221.335592 19.7747809,221.271024 20.0296696,221.271024 C20.2208362,221.335592 20.4120027,221.335592 20.5394471,221.400159 L20.7306136,221.529295 L20.858058,221.529295 C21.6227242,221.852132 22.5148348,222.497808 23.279501,223.337186 C24.4902225,224.628537 25,226.113591 25,227.017537 C25,227.275807 24.9362778,227.534077 24.8088334,227.598645 C24.7451113,227.663212 24.299056,228.050618 24.0441672,228.24432 C22.6422792,229.341969 20.9217802,229.923077 19.2012812,229.923077 C17.1621713,229.923077 15.1230614,229.083699 13.6574512,227.598645 L3.27073511,216.815863 C0.530681182,213.97489 0.21207026,209.455161 2.63351327,206.291351 C2.69723545,206.162216 3.07956856,205.774811 3.58934603,205.25827 L3.65306822,205.193703 L3.7167904,205.129135 L3.7167904,205.064568 C3.78051259,205.064568 3.84423477,205 4.09912351,205 C4.80006754,205 6.2019556,205.581108 7.60384365,206.872459 Z" id="Path" transform="translate(13.000000, 217.461538) scale(-1, 1) rotate(-90.000000) translate(-13.000000, -217.461538) "></path>
            </g>
        </g>
    </g>
</svg>