<?xml version="1.0" encoding="UTF-8"?>
<svg width="290px" height="44px" viewBox="0 0 290 44" version="1.1" xmlns="http://www.w3.org/2000/svg" xmlns:xlink="http://www.w3.org/1999/xlink">
    <title>immunespace_lockup_whiteblue</title>
    <g id="Symbols" stroke="none" stroke-width="1" fill="none" fill-rule="evenodd">
        <g id="header/initial" transform="translate(-32.000000, -17.000000)">
            <g id="immunespace_lockup_whiteblue" transform="translate(32.000000, 17.000000)">
                <path d="M60.977338,16.8292924 C64.8673464,16.8292924 68.0208214,19.9827674 68.0208214,23.8727759 C68.0208214,27.7627843 64.8673464,30.9162593 60.977338,30.9162593 C57.0873295,30.9162593 53.9338545,27.7627843 53.9338545,23.8727759 C53.9338545,19.9827674 57.0873295,16.8292924 60.977338,16.8292924 M60.977338,15.3453538 C56.2677728,15.3453538 52.4499159,19.1632107 52.4499159,23.8727759 C52.4499159,28.582341 56.2677728,32.4001979 60.977338,32.4001979 C65.6869031,32.4001979 69.50476,28.582341 69.50476,23.8727759 C69.50476,19.1632107 65.6869031,15.3453538 60.977338,15.3453538 L60.977338,15.3453538 Z" id="Shape" fill="#0F91F2" fill-rule="nonzero"></path>
                <path d="M30.4938941,16.8292924 C33.6484504,16.8112494 36.4384315,18.8720746 37.348594,21.8925308 C38.2587566,24.9129869 37.0718697,28.1721731 34.4325334,29.90002 C31.7931971,31.627867 28.3313493,31.4119846 25.9271252,29.369619 L25.0806531,28.6381 L24.8298466,28.408194 C23.502662,27.2168629 21.851519,25.7329243 19.8450668,25.7329243 C17.8386145,25.7329243 16.1874715,27.2168629 14.860287,28.408194 L14.6512815,28.5962989 L13.7421079,29.3591687 C10.8547784,31.7839073 6.57741467,31.5359311 3.98963096,28.7937779 C1.40184726,26.0516247 1.40184726,21.7670789 3.98963096,19.0249257 C6.57741467,16.2827725 10.8547784,16.0347963 13.7421079,18.4595349 L14.4631766,19.0552004 L14.9334389,19.4941118 C16.2292726,20.7167937 17.8490648,22.2320831 19.8450668,22.2320831 C21.8410688,22.2320831 23.460861,20.7167937 24.7566947,19.4941118 L25.1851559,19.0970015 L25.9480257,18.4595349 C27.2278592,17.4044236 28.8352104,16.8279942 30.4938941,16.8292924 M30.4938941,15.3453538 C28.4754434,15.3417635 26.520832,16.0525313 24.9761504,17.351806 L24.9761504,17.351806 C23.5444631,18.3968333 21.7574666,20.7899456 19.8241663,20.7899456 C17.8908659,20.7899456 16.1038694,18.3968333 14.630381,17.3100049 L14.630381,17.3100049 C11.1403917,14.3820669 5.9727036,14.6833473 2.84660463,17.9970086 C-0.279494346,21.31067 -0.279494346,26.4871331 2.84660463,29.8007944 C5.9727036,33.1144558 11.1403917,33.4157362 14.630381,30.4877981 L14.630381,30.4877981 C16.0620683,29.4427709 17.8490648,27.1959624 19.7823652,27.1959624 C21.7156655,27.1959624 23.502662,29.4009698 24.9343493,30.4877981 L24.9343493,30.4877981 C27.8445528,32.9174386 32.0033834,33.1520262 35.168355,31.0650687 C38.3333266,28.9781111 39.755972,25.063142 38.6691854,21.4311547 C37.5823988,17.7991673 34.2431887,15.3090711 30.452093,15.3035527 L30.4938941,15.3453538 Z" id="Shape" fill="#0F91F2" fill-rule="nonzero"></path>
                <circle id="Oval" fill="#FFFFFF" fill-rule="nonzero" cx="9.20668976" cy="23.9145769" r="4.75487382"></circle>
                <circle id="Oval" fill="#0F91F2" fill-rule="nonzero" cx="30.6192974" cy="23.9145769" r="4.75487382"></circle>
                <path d="M45.772192,6.13866227 C48.5317628,6.13738161 51.0417805,7.73613801 52.2072904,10.2375015 C53.3728003,12.7388651 52.9823759,15.689082 51.2063335,17.8011677 L50.610668,18.5222365 C50.4748144,18.6789906 50.3180604,18.8357447 50.1717566,18.9924988 C48.9490747,20.2987828 47.4337853,21.918575 47.4337853,23.9145769 C47.4337853,25.9105789 48.9490747,27.5199208 50.1717566,28.8262048 L50.5688669,29.2442157 L51.2063335,30.0175359 C53.6310721,32.9048654 53.3830958,37.1822291 50.6409427,39.7700128 C47.8987895,42.3577965 43.6142437,42.3577965 40.8720905,39.7700128 C38.1299373,37.1822291 37.8819611,32.9048654 40.3066997,30.0175359 L41.0277684,29.1501633 C41.1009203,29.0665611 41.1845225,28.9829589 41.2576744,28.8889065 C42.4490054,27.5721722 43.9329441,25.9210292 43.9329441,23.9145769 C43.9329441,21.9081247 42.469906,20.2569817 41.278575,18.9193469 L41.0904701,18.7103414 L40.3276002,17.7907175 C38.5570105,15.6768793 38.1713581,12.7287021 39.3386523,10.230558 C40.5059466,7.7324139 43.0147845,6.13672952 45.772192,6.13866227 M45.772192,4.65471902 C41.0279977,4.65471902 37.1820683,8.50065477 37.1820683,13.2448491 C37.1764176,15.2605036 37.8875856,17.2125116 39.1885205,18.7521425 L39.1885205,18.7521425 C40.2335477,20.1942801 42.4803563,21.9708263 42.4803563,23.9145769 C42.4803563,25.8583276 40.2753488,27.6348738 39.1885205,29.0665611 L39.1885205,29.0665611 C37.8829158,30.6116708 37.1714447,32.5719217 37.1820683,34.5947551 C36.9580005,37.8029202 38.542512,40.8680598 41.2895088,42.540345 C44.0365057,44.2126303 47.4869778,44.2126303 50.2339746,42.540345 C52.9809714,40.8680598 54.5654829,37.8029202 54.3414151,34.5947551 C54.3470658,32.5791006 53.6358978,30.6270926 52.3349629,29.0874617 L52.3349629,29.0874617 C51.2899357,27.6557744 48.8968234,25.8687778 48.8968234,23.9354775 C48.8968234,22.0021771 51.2481346,20.2151806 52.3349629,18.773043 L52.3349629,18.773043 C53.6405676,17.2279334 54.3520387,15.2676824 54.3414151,13.2448491 C54.3414168,10.9647948 53.4349542,8.77827808 51.8217326,7.16701665 C50.208511,5.55575522 48.0208937,4.65195159 45.7408412,4.65471902 L45.772192,4.65471902 Z" id="Shape" fill="#FFFFFF" fill-rule="nonzero"></path>
                <circle id="Oval" fill="#FFFFFF" fill-rule="nonzero" cx="45.772192" cy="13.2971004" r="4.75487382"></circle>
                <circle id="Oval" fill="#0F91F2" fill-rule="nonzero" cx="45.772192" cy="34.5947551" r="4.75487382"></circle>
                <circle id="Oval" fill="#0F91F2" fill-rule="nonzero" cx="60.977338" cy="23.9145769" r="4.75487382"></circle>
                <path d="M19.9077684,1.58234537 C23.7977769,1.58234537 26.9512519,4.73582032 26.9512519,8.6258288 C26.9512519,12.5158373 23.7977769,15.6693122 19.9077684,15.6693122 C16.01776,15.6693122 12.864285,12.5158373 12.864285,8.6258288 C12.864285,4.73582032 16.01776,1.58234537 19.9077684,1.58234537 M19.9077684,0.0984002804 C16.4578003,0.0941788241 13.345187,2.16913579 12.0220107,5.35527805 C10.6988345,8.54142032 11.4258228,12.2109293 13.8638243,14.6519222 C16.3018258,17.0929152 19.9704406,17.8244026 23.158203,16.5051344 C26.3459654,15.1858661 28.4247402,12.0757995 28.4247402,8.6258288 C28.4189822,3.92442227 24.609175,0.114615007 19.9077684,0.108857001 L19.9077684,0.0984002804 Z" id="Shape" fill="#0F91F2" fill-rule="nonzero"></path>
                <circle id="Oval" fill="#0F91F2" fill-rule="nonzero" cx="19.9077684" cy="8.6258288" r="4.75487382"></circle>
                <path d="M81.9301336,34.8246611 C81.9361162,35.1852696 81.7878292,35.5312724 81.522573,35.7756358 C81.2655867,36.0338981 80.915008,36.1771453 80.5506977,36.1727462 C80.1801772,36.1949679 79.819358,36.0491048 79.5683721,35.7756358 C79.3267424,35.5186978 79.1954336,35.1772947 79.2026126,34.8246611 L79.2026126,14.5511331 C79.1919434,14.1856583 79.3361692,13.8326845 79.5997229,13.5792578 C79.8633605,13.3270315 80.2173727,13.1914524 80.5820485,13.203048 C80.936781,13.1952 81.2796677,13.3308475 81.5330233,13.5792578 C81.7965769,13.8326845 81.9408028,14.1856583 81.9301336,14.5511331 L81.9301336,34.8246611 Z" id="Path" fill="#FFFFFF" fill-rule="nonzero"></path>
                <path d="M153.619,13.1716972 C153.967607,13.1584174 154.304246,13.2999588 154.538624,13.5583572 C154.77836,13.8164813 154.909362,14.1570874 154.904384,14.509332 L154.904384,27.5408214 C154.961914,30.6963797 153.317038,33.6387915 150.598872,35.2426719 C149.244539,36.0277493 147.701815,36.4287854 146.136606,36.4026522 C144.558016,36.4300778 143.001499,36.0292113 141.632538,35.2426719 C140.33148,34.4895932 139.250535,33.4086482 138.497457,32.1075903 C137.716329,30.7254884 137.319415,29.1594825 137.347927,27.5721722 L137.347927,14.509332 C137.338586,14.1444179 137.482361,13.7922421 137.744419,13.5381255 C138.006477,13.2840088 138.362909,13.1511358 138.727363,13.1716972 C139.076611,13.1710691 139.411567,13.3103204 139.657437,13.5583572 C139.920501,13.804265 140.06835,14.1492455 140.064998,14.509332 L140.064998,27.5408214 C140.048789,28.6680742 140.333791,29.7792197 140.890569,30.7595052 C141.417308,31.683082 142.18245,32.4482238 143.106027,32.9749629 C144.0272,33.5066756 145.073,33.7843535 146.136606,33.7796338 C147.234404,33.7933733 148.316207,33.5157105 149.271687,32.9749629 C150.207026,32.4421029 150.991097,31.6796119 151.549847,30.7595052 C152.134121,29.7887673 152.434611,28.6736967 152.417219,27.5408214 L152.417219,14.509332 C152.412224,14.1644533 152.526682,13.8284642 152.741178,13.5583572 C152.962609,13.3065468 153.283744,13.1650947 153.619,13.1716972 Z" id="Path" fill="#FFFFFF" fill-rule="nonzero"></path>
                <path d="M176.923107,13.547907 C176.692546,13.3138197 176.373528,13.188491 176.045285,13.203048 C175.7194,13.1913843 175.403199,13.3149977 175.171629,13.5445883 C174.94006,13.774179 174.813737,14.0893074 174.822603,14.4152796 L174.822603,31.4596734 L161.404453,13.6942108 C161.286022,13.5300001 161.117242,13.4089189 160.923741,13.3493518 C160.73108,13.2720504 160.52521,13.233006 160.317625,13.2343988 C159.982612,13.2280109 159.658977,13.35596 159.418902,13.5897081 C159.165186,13.8395841 159.028594,14.1848587 159.042692,14.5406828 L159.042692,34.9605146 C159.031659,35.2811141 159.148153,35.5930158 159.36665,35.8278872 C159.590018,36.0598183 159.901815,36.1852979 160.223572,36.1727462 C160.557699,36.1855174 160.882479,36.0608927 161.122296,35.8278872 C161.351487,35.5983912 161.476196,35.2847296 161.467155,34.9605146 L161.467155,18.041524 L174.864404,35.744285 C174.983642,35.8868941 175.138761,35.9951167 175.313765,36.0577932 C175.502458,36.136151 175.705131,36.1752633 175.909431,36.1727462 C176.274278,36.1787775 176.625514,36.0343258 176.880553,35.7733559 C177.135592,35.5123861 177.271932,35.1579226 177.257516,34.7933102 L177.257516,14.4152796 C177.265738,14.0932044 177.145411,13.7811048 176.923107,13.547907 L176.923107,13.547907 Z" id="Path" fill="#FFFFFF" fill-rule="nonzero"></path>
                <path d="M225.485522,13.203048 C226.631117,13.1854627 227.758161,13.4934972 228.735557,14.0913211 C229.699399,14.679597 230.486492,15.5172376 231.013716,16.5157843 C231.588177,17.5954247 231.876028,18.804399 231.849738,20.0270757 C231.868727,21.2489636 231.581304,22.4561404 231.013716,23.5383671 C230.488314,24.5575472 229.702257,25.4193251 228.735557,26.0359822 C227.762903,26.6480424 226.634668,26.9672857 225.485522,26.9556061 L218.828699,26.9556061 L219.048154,26.5584958 L219.048154,34.8246611 C219.058159,35.1758409 218.930673,35.5170526 218.692845,35.7756358 C218.450282,36.0299131 218.114188,36.1737918 217.762771,36.1737918 C217.411354,36.1737918 217.07526,36.0299131 216.832697,35.7756358 C216.605246,35.512184 216.485793,35.1724892 216.498288,34.8246611 L216.498288,14.509332 C216.492579,14.1611652 216.628371,13.8255795 216.874595,13.5793553 C217.12082,13.3331312 217.456405,13.1973392 217.804572,13.203048 L225.485522,13.203048 Z M225.485522,24.4266403 C226.167421,24.4402548 226.835159,24.2311279 227.387472,23.8309748 C227.954933,23.4140004 228.407857,22.8604261 228.704206,22.2216329 C229.032255,21.5368347 229.200215,20.7863791 229.195369,20.0270757 C229.210711,19.2666826 229.042215,18.5138282 228.704206,17.8325186 C228.396299,17.2241603 227.94425,16.7003573 227.387472,16.3067788 C226.830602,15.9180959 226.164452,15.716787 225.485522,15.7320139 L218.828699,15.7320139 L219.048154,15.3662543 L219.048154,24.7714993 L218.828699,24.4475408 L225.485522,24.4266403 Z" id="Shape" fill="#0F91F2" fill-rule="nonzero"></path>
                <path d="M240.168154,16.6098367 L232.455854,35.4203266 C232.378705,35.6729441 232.216163,35.8908986 231.996042,36.0368926 C231.796712,36.1854571 231.554926,36.2660524 231.306324,36.2667986 C230.967605,36.2949407 230.632993,36.1770662 230.3867,35.9428402 C230.195934,35.7265547 230.091737,35.4474536 230.094092,35.1590698 C230.075344,34.9926899 230.096848,34.8242409 230.156794,34.667907 L238.663315,13.9868184 C238.836746,13.4390299 239.365528,13.0836197 239.938248,13.1298961 C240.212731,13.1308162 240.481164,13.2106205 240.711569,13.3598021 C240.935705,13.5109955 241.104463,13.7311146 241.192281,13.9868184 L249.657001,34.4693518 C249.719288,34.6365133 249.751141,34.8134766 249.751054,34.9918654 C249.770515,35.3445936 249.628181,35.6869664 249.364394,35.9219396 C249.120673,36.1420314 248.804505,36.2647788 248.476121,36.2667986 C248.217388,36.2690809 247.964713,36.1885177 247.755052,36.0368926 C247.526063,35.8792044 247.353863,35.652047 247.263889,35.3889758 L239.447086,16.5784859 L240.168154,16.6098367 Z M234.086096,30.0384364 L235.204275,27.4781197 L244.954379,27.4781197 L245.445542,30.0384364 L234.086096,30.0384364 Z" id="Shape" fill="#0F91F2" fill-rule="nonzero"></path>
                <path d="M269.397566,14.739238 C269.746275,14.9088573 269.985966,15.2428532 270.035032,15.6275111 C270.076109,16.0039127 269.963011,16.3809061 269.721524,16.6725383 C269.557465,16.936092 269.278478,17.1065841 268.969104,17.1323503 C268.650533,17.1470116 268.333624,17.078588 268.04948,16.9337952 C267.320747,16.4868787 266.537505,16.1356489 265.71907,15.8887679 C263.688108,15.3012299 261.519603,15.404142 259.553409,16.1813756 C258.502426,16.6119265 257.552295,17.2560223 256.763187,18.0728748 C255.953218,18.9136731 255.326885,19.9136712 254.923939,21.0094013 C254.472881,22.1935404 254.249512,23.4522119 254.265571,24.7192479 C254.243829,26.0439421 254.478019,27.3603778 254.955289,28.5962989 C255.385496,29.6689376 256.028992,30.64307 256.846789,31.4596734 C257.636898,32.2599406 258.587951,32.8832897 259.637011,33.2884711 C262.407322,34.372303 265.527068,34.0816433 268.04948,32.5047006 C268.333624,32.3621956 268.653796,32.3076208 268.969104,32.3479466 C269.279368,32.3958598 269.559674,32.5603065 269.752875,32.8077585 C269.995072,33.0986675 270.104915,33.4774346 270.055933,33.8527857 C269.998015,34.2179915 269.763297,34.5309493 269.428916,34.6888075 C268.823001,35.0590761 268.186731,35.3772111 267.526967,35.6397823 C266.819579,35.920078 266.088664,36.1369045 265.34286,36.2876992 C264.592258,36.4336666 263.829364,36.5073794 263.064701,36.5073794 C261.539435,36.516402 260.025927,36.2399297 258.602434,35.6920336 C257.222297,35.1568831 255.961527,34.3542523 254.892588,33.3302721 C253.796057,32.27667 252.931191,31.0060635 252.353172,29.599525 C251.706322,28.0477501 251.386157,26.3793346 251.412647,24.6983474 C251.392157,23.0906416 251.6942,21.4951441 252.30092,20.0061752 C252.867168,18.6148224 253.709723,17.3527678 254.777635,16.2963286 C256.979249,14.1146327 259.965494,12.9095903 263.064701,12.9522415 C264.192044,12.9474275 265.314392,13.1022342 266.398337,13.4120534 C267.457118,13.7067549 268.467427,14.1538257 269.397566,14.739238 L269.397566,14.739238 Z" id="Path" fill="#0F91F2" fill-rule="nonzero"></path>
                <path d="M276.043939,13.203048 L287.727343,13.203048 C288.078523,13.1930438 288.419734,13.3205295 288.678318,13.5583572 C288.941803,13.7899062 289.087548,14.1274212 289.075428,14.4779812 C289.090496,14.8260903 288.943933,15.1616433 288.678318,15.3871549 C288.416432,15.6183827 288.076567,15.7416305 287.727343,15.7320139 L277.162118,15.7320139 L277.454725,15.1676992 L277.454725,23.5279169 L277.130767,23.1621573 L286.253855,23.1621573 C286.606488,23.1549784 286.947891,23.2862872 287.204829,23.5279169 C287.465903,23.7612112 287.611136,24.0975389 287.60194,24.4475408 C287.610717,24.7914443 287.46501,25.1212025 287.204829,25.3462642 C286.942944,25.577492 286.603079,25.7007398 286.253855,25.6911232 L277.224819,25.6911232 L277.454725,25.3985156 L277.454725,33.8945868 L277.26662,33.6646809 L287.716893,33.6646809 C288.075152,33.6598888 288.419407,33.8036435 288.667867,34.0617912 C288.920629,34.2878679 289.065065,34.6109492 289.064978,34.9500643 C289.077097,35.3006243 288.931352,35.6381394 288.667867,35.8696883 C288.409284,36.107516 288.068072,36.2350017 287.716893,36.2249975 L276.043939,36.2249975 C275.690867,36.2344425 275.351234,36.0894306 275.113864,35.8278872 C274.865454,35.5745316 274.729807,35.2316449 274.737655,34.8769124 L274.737655,14.509332 C274.731946,14.1611652 274.867738,13.8255795 275.113962,13.5793553 C275.360186,13.3331312 275.695772,13.1973392 276.043939,13.203048 Z" id="Path" fill="#0F91F2" fill-rule="nonzero"></path>
                <path d="M105.788105,36.1204948 C105.451105,36.131829 105.123948,36.0058299 104.881611,35.7713733 C104.639273,35.5369166 104.502531,35.2141029 104.502721,34.8769124 L104.502721,17.0278476 L99.2775854,24.5415933 C98.5921932,25.5335475 97.4597224,26.1213179 96.2540582,26.1108521 C95.0483939,26.1003863 93.9262974,25.493045 93.2582286,24.4893419 L88.0330925,16.7038892 L88.0330925,34.8769124 C88.0330926,35.3212016 87.7960671,35.7317419 87.4113014,35.9538865 C87.0265356,36.1760311 86.5524847,36.1760311 86.1677189,35.9538865 C85.7829532,35.7317419 85.5459278,35.3212016 85.5459278,34.8769124 L85.5459278,15.2304008 C85.6066346,14.3645238 86.1962043,13.6262887 87.0272156,13.3755925 C87.8582269,13.1248964 88.757697,13.413924 89.2871252,14.1017714 L95.4214349,23.0994557 C95.6277491,23.4200444 95.9807653,23.6161645 96.3619594,23.6219693 C96.7415055,23.6076437 97.0945093,23.4234678 97.3233845,23.1203563 L103.30094,14.4257298 C103.838187,13.7509878 104.734734,13.4755596 105.558139,13.7322957 C106.381545,13.9890317 106.962679,14.7251977 107.021281,15.58571 L107.021281,34.8769124 C107.024024,35.2057663 106.895336,35.5221096 106.663777,35.7556319 C106.432217,35.9891542 106.116971,36.1205066 105.788105,36.1204948 Z" id="Path" fill="#FFFFFF" fill-rule="nonzero"></path>
                <path d="M131.600277,36.1204948 C130.913466,36.1204948 130.356695,35.563724 130.356695,34.8769124 L130.356695,17.0278476 L125.19426,24.5415933 C124.516116,25.5451926 123.374627,26.1356177 122.163681,26.1091341 C120.944602,26.116304 119.80447,25.5069227 119.133102,24.4893419 L113.907966,16.7038892 L113.907966,34.8769124 C113.907966,35.563724 113.351196,36.1204948 112.664384,36.1204948 C111.977572,36.1204948 111.420802,35.563724 111.420802,34.8769124 L111.420802,15.2304008 C111.423279,14.3343185 112.010832,13.5450042 112.868529,13.2855328 C113.726226,13.0260615 114.652777,13.3573275 115.151549,14.1017714 L121.223157,23.0994557 C121.435391,23.4189183 121.790676,23.6141296 122.174132,23.6219693 C122.555698,23.615419 122.911903,23.4295725 123.135557,23.1203563 L129.113112,14.4257298 C129.650359,13.7509878 130.546906,13.4755596 131.370312,13.7322957 C132.193717,13.9890317 132.774852,14.7251977 132.833409,15.58571 L132.833409,34.8769124 C132.833409,35.5596635 132.283004,36.1147574 131.600277,36.1204948 Z" id="Path" fill="#FFFFFF" fill-rule="nonzero"></path>
                <path d="M196.308362,32.6405542 C196.302474,32.6786456 196.302474,32.7174158 196.308362,32.7555072 C196.376482,32.8659957 196.453364,32.9708354 196.538268,33.0690153 C196.453364,32.9708354 196.376482,32.8659957 196.308362,32.7555072 C196.302474,32.7174158 196.302474,32.6786456 196.308362,32.6405542 L196.308362,32.6405542 Z" id="Path"></path>
                <path d="M212.663038,27.8752301 C212.589886,27.6662246 212.516734,27.4676695 212.433132,27.2795646 C212.095082,26.5405372 211.582182,25.8949284 210.938743,25.3985156 C210.473589,25.0616559 209.976572,24.771146 209.454805,24.531143 C209.193548,24.4057397 208.932291,24.2803365 208.650134,24.1653835 C208.200772,23.9981791 207.74096,23.841425 207.260247,23.6951212 C206.779535,23.5488174 206.21522,23.4129639 205.744958,23.2875606 C204.851366,23.0516963 203.974976,22.7549109 203.12194,22.3992875 L203.059238,22.3992875 C202.53244,22.1837982 202.042381,21.8876478 201.60665,21.5214646 C201.47428,21.3960614 201.348877,21.2706581 201.23044,21.1452548 C201.113594,21.0156175 201.008667,20.8757149 200.916932,20.7272439 C200.646195,20.2422872 200.509151,19.6941114 200.519822,19.1388026 C200.504228,18.4612192 200.726031,17.7995075 201.146838,17.2682039 C201.249886,17.1388428 201.361613,17.0166409 201.481247,16.9024443 L201.481247,16.9024443 L201.575299,16.8292924 C201.812233,16.6231516 202.071643,16.4443688 202.348619,16.2963286 C202.515824,16.2127264 202.693478,16.1291242 202.881583,16.0559723 C203.680185,15.7736923 204.521745,15.6322537 205.368748,15.6379614 L205.483701,15.6379614 C205.833452,15.6339141 206.182952,15.658379 206.528728,15.7111133 C206.864266,15.7567193 207.19606,15.8265706 207.521504,15.9201188 C207.844504,16.0177746 208.161963,16.132897 208.472479,16.2649777 C208.770592,16.388831 209.060328,16.5319538 209.339852,16.6934389 C209.416908,16.7360797 209.490309,16.7850141 209.559307,16.8397427 C209.990374,17.0941283 210.381294,17.4110905 210.719287,17.7802672 C210.893106,17.9482375 211.125489,18.0419403 211.367204,18.041524 C211.713819,18.0383165 212.043365,17.8905887 212.276378,17.6339634 C212.527525,17.4111172 212.671934,17.0918972 212.673488,16.7561405 C212.664988,16.4926939 212.577617,16.2378617 212.422682,16.0246215 C212.309171,15.862262 212.179633,15.7117187 212.036022,15.5752598 C211.47258,14.9664804 210.798834,14.470036 210.05047,14.1122217 C209.78152,13.9828662 209.505948,13.867754 209.224899,13.7673627 C208.642522,13.5499482 208.040609,13.3889716 207.427452,13.2866502 C207.113944,13.2309154 206.800435,13.1891143 206.486927,13.1612469 C206.162969,13.1612469 205.849461,13.1612469 205.525502,13.1612469 L204.982088,13.1612469 C204.139769,13.1899213 203.304293,13.3233166 202.494923,13.5583572 C202.192611,13.6525459 201.896021,13.7642033 201.60665,13.892766 C201.324493,14.0181692 201.063236,14.1540228 200.801979,14.3003266 C200.071605,14.7394022 199.441468,15.3268182 198.952281,16.0246215 C198.470869,16.7156147 198.159365,17.5104877 198.043107,18.3445819 C198.026882,18.6369646 198.026882,18.9300221 198.043107,19.2224048 C198.04046,19.6747976 198.082465,20.1263475 198.168511,20.5704899 C198.253606,21.1735493 198.483046,21.7471484 198.837328,22.2425334 C199.114182,22.7275494 199.467001,23.1650451 199.882355,23.5383671 L199.882355,23.5383671 C199.972123,23.6104404 200.066364,23.6767581 200.164513,23.7369223 C200.73413,24.1625067 201.355713,24.5136839 202.014211,24.7819495 C202.891988,25.1423935 203.79705,25.4324327 204.720831,25.6493221 C205.274696,25.7747254 205.765858,25.9210292 206.288372,26.0777833 C206.749975,26.2242657 207.203461,26.3951948 207.646907,26.5898466 C207.854038,26.6803436 208.056347,26.7814982 208.253023,26.8929045 C208.609125,27.0883789 208.942139,27.3232412 209.245799,27.5930727 C209.38841,27.71479 209.521192,27.8475724 209.642909,27.9901831 C210.003485,28.4209439 210.241695,28.9406753 210.332627,29.4950223 C210.364936,29.6957175 210.38587,29.8980791 210.395329,30.1011381 C210.40609,30.2716562 210.40609,30.4426832 210.395329,30.6132014 C210.309585,31.1122348 210.089165,31.57837 209.757862,31.9612865 C209.532425,32.2348915 209.268407,32.4742678 208.974092,32.671905 C208.645895,32.8894013 208.295602,33.0715538 207.929065,33.2153191 C207.114115,33.5211483 206.249599,33.6735015 205.379198,33.6646809 C204.252152,33.6803071 203.134337,33.459592 202.097813,33.016764 C201.851404,32.9110295 201.610716,32.7924299 201.376744,32.6614547 C200.647562,32.2554927 199.979154,31.7489099 199.391192,31.1566155 C199.278709,31.0522597 199.152056,30.9643062 199.014983,30.8953587 C198.87964,30.8376391 198.733635,30.8091503 198.586522,30.8117566 C198.239,30.7998034 197.904745,30.9457998 197.677348,31.2088669 C197.557524,31.3329417 197.461842,31.4782367 197.39519,31.6373281 C197.333064,31.7899803 197.301138,31.9532302 197.301138,32.1180406 C197.302453,32.2837697 197.338032,32.4474356 197.405641,32.5987531 C197.399752,32.6368445 197.399752,32.6756147 197.405641,32.7137061 C197.47376,32.8241946 197.550643,32.9290343 197.635547,33.0272143 L197.7714,33.2153191 C198.545871,33.9361479 199.40989,34.5543079 200.342167,35.054567 C200.645225,35.2008709 200.937833,35.3367244 201.240891,35.4516774 C201.544283,35.5749109 201.85488,35.6796063 202.170965,35.7651856 C203.225286,36.038512 204.310968,36.1720264 205.400099,36.1622959 C206.102388,36.1595593 206.802613,36.0860357 207.490153,35.9428402 C207.895197,35.8528441 208.293315,35.7341072 208.681484,35.5875309 C208.897936,35.5183451 209.110704,35.4381213 209.318951,35.3471747 C209.884992,35.0829179 210.41811,34.7532268 210.907392,34.3648491 C211.223191,34.0926107 211.516733,33.7955745 211.785215,33.476576 C211.858367,33.3720732 211.95242,33.2884711 212.025571,33.1839683 C212.098723,33.0794656 212.130074,32.9958634 212.192776,32.9122613 C212.742031,32.0551906 213.028972,31.0563454 213.018347,30.0384364 C213.007674,29.3037523 212.887931,28.5747284 212.663038,27.8752301 Z" id="Path" fill="#0F91F2" fill-rule="nonzero"></path>
                <path d="M194.594518,35.5561801 L194.510915,35.4725779 C194.134199,35.1084168 193.819976,34.6847457 193.580841,34.2185453 C193.478773,34.0232995 193.391444,33.8206963 193.319584,33.6124295 L184.896665,33.6124295 L184.896665,25.6388718 L196.391964,25.6388718 C195.642344,24.9096294 195.033082,24.0488693 194.594518,23.0994557 L184.896665,23.0994557 L184.896665,15.7842652 L194.490015,15.7842652 C194.705442,15.2508568 194.978787,14.7427154 195.305136,14.2689758 C195.54989,13.8976322 195.826096,13.548004 196.130708,13.2239485 L183.485878,13.2239485 C183.135918,13.2153623 182.797594,13.3498824 182.549076,13.5964281 C182.300558,13.8429738 182.163347,14.1802149 182.169144,14.5302326 L182.169144,34.8246611 C182.161296,35.1793935 182.296943,35.5222803 182.545354,35.7756358 C182.785955,36.0388225 183.129462,36.183859 183.485878,36.1727462 L195.315586,36.1727462 C195.07523,35.974191 194.834874,35.7756358 194.594518,35.5561801 Z" id="Path" fill="#FFFFFF" fill-rule="nonzero"></path>
            </g>
        </g>
    </g>
</svg>